<svg width="332" height="97" viewBox="0 0 332 97" fill="none" xmlns="http://www.w3.org/2000/svg">
<g clip-path="url(#clip0_41_2)">
<mask id="mask0_41_2" style="mask-type:luminance" maskUnits="userSpaceOnUse" x="0" y="0" width="332" height="97">
<path d="M331.528 0H0V96.187H331.528V0Z" fill="white"/>
</mask>
<g mask="url(#mask0_41_2)">
<path fill-rule="evenodd" clip-rule="evenodd" d="M30.352 0.491958C30.092 1.52596 26.592 9.97296 22.329 19.854C14.68 37.582 13.548 40.259 13.656 40.368C13.718 40.429 14.332 40.297 15.022 40.074C23.083 37.468 39.249 37.44 47.774 40.018C49.526 40.547 49.613 40.927 46.397 33.997C42.371 25.323 36.066 11.578 33.278 5.40095C30.629 -0.467046 30.603 -0.511042 30.352 0.491958ZM72.604 17.402C71.04 17.883 71.019 17.929 71.464 19.896C72.283 23.516 72.435 28.113 72.365 47.14C72.296 65.8 72.3 65.968 72.828 66.496C73.428 67.095 75.056 67.397 76.35 67.148C77.921 66.845 77.928 66.826 77.416 63.974C76.732 60.161 76.732 25.244 77.416 20.635C77.982 16.823 76.884 16.085 72.604 17.402ZM184.896 22.202C178.432 23.036 174.557 27.078 174.793 32.744C174.957 36.682 176.817 39.26 182.663 43.651C187.371 47.187 188.549 48.818 188.536 51.785C188.512 57.053 181.252 59.927 175.492 56.948C174.642 56.509 174.479 56.767 174.479 58.559C174.479 60.641 175.872 61.439 179.948 61.693C187.711 62.176 193.01 57.9 193.075 51.099C193.115 46.924 191.669 44.715 186.158 40.531C180.004 35.86 178.408 33.244 179.676 29.91C180.944 26.574 186.426 24.875 190.323 26.61C191.996 27.355 192.177 27.203 192.183 25.047C192.19 22.511 189.785 21.572 184.896 22.202ZM140.313 27.122C138.866 27.418 138.536 27.788 138.832 28.787C138.968 29.245 139.152 30.991 139.24 32.668L139.401 35.717L137.213 35.793L135.026 35.869L134.786 36.84C134.328 38.694 134.789 39.125 137.234 39.125H139.323V50.421C139.323 63.46 139.098 62.444 141.975 62.412C144.358 62.385 144.407 62.316 144.046 59.5C143.875 58.162 143.75 53.384 143.75 48.156V39.125H146.713C150.15 39.125 150.331 39.021 150.21 37.127L150.13 35.869L146.902 35.796L143.674 35.722L143.851 32.931C143.948 31.396 144.097 29.543 144.18 28.813C144.299 27.776 144.248 27.453 143.944 27.336C143.178 27.042 141.258 26.929 140.313 27.122ZM240.364 36.008C238.182 37.098 237.827 37.204 237.349 36.905C234.624 35.201 228.688 35.138 225.358 36.777C220.15 39.341 219.022 46.185 223.166 50.076L224.43 51.263L223.673 51.769C221.551 53.189 221.661 56.63 223.882 58.324L224.774 59.005L222.521 60.171C219.092 61.946 217.965 64.338 219.125 67.377C221.957 74.793 241.48 74.721 243.708 67.286C245.053 62.796 242.409 60.52 233.249 58.286C227.747 56.945 226.302 56.152 226.302 54.478C226.302 52.679 226.859 52.34 229.747 52.383C238.096 52.508 243.709 46.427 240.408 40.833C239.802 39.806 239.751 39.872 241.601 39.269C243.532 38.638 244.597 36.169 243.437 35.01C243.05 34.622 243.3 34.541 240.364 36.008ZM92.111 35.763C81.081 37.376 78.325 55.636 88.37 60.554C94.324 63.47 104.969 61.882 104.944 58.083C104.936 56.987 104.595 56.732 103.732 57.179C95.569 61.4 87.001 57.867 86.982 50.272L86.979 49.049L94.596 48.97C104.508 48.866 105.093 48.595 104.877 44.203C104.569 37.978 99.569 34.672 92.111 35.763ZM109.032 35.787C108.502 35.98 108.345 36.174 108.464 36.483C109.434 38.982 109.484 39.648 109.551 50.822C109.602 59.484 109.689 61.914 109.951 62.081C110.318 62.314 113.549 62.382 114.106 62.169C114.388 62.061 114.436 60.331 114.365 52.909L114.276 43.782L114.971 42.362C117 38.215 123.732 37.561 126.214 41.27C127.516 43.216 127.642 44.352 127.573 53.518C127.507 62.362 127.486 62.222 128.906 62.317C132.353 62.546 132.939 62.207 132.526 60.218C132.363 59.43 132.154 55.036 132.061 50.453L131.892 42.119L131.166 40.557C128.636 35.112 119.875 33.673 115.164 37.929L114.117 38.875L113.8 37.503C113.342 35.516 111.547 34.871 109.032 35.787ZM159.684 35.756C147.713 37.868 146.546 57.452 158.171 61.144C164.029 63.004 172.135 60.969 172.135 57.638C172.135 56.277 172.101 56.271 169.809 57.262C162.115 60.589 155.405 57.768 155.002 51.039L154.881 49.02L162.01 49.015C171.498 49.007 172.18 48.732 172.357 44.835C172.645 38.488 167.024 34.461 159.684 35.756ZM205.208 35.772C195.157 37.402 191.836 54.125 200.464 59.661C205.876 63.134 217.465 61.977 217.444 57.966C217.436 56.562 217.138 56.435 215.581 57.171C208.043 60.737 200.921 57.804 200.342 50.894L200.185 49.02L207.319 49.019C217.298 49.017 217.838 48.785 217.838 44.51C217.838 38.174 212.628 34.569 205.208 35.772ZM247.176 35.724C245.901 36.046 245.743 36.301 246.1 37.466C246.291 38.089 246.482 41.705 246.601 46.937C246.827 56.876 246.883 57.145 249.199 59.447C252.5 62.728 258.586 62.648 262.007 59.279L263.209 58.095L263.525 59.349C263.971 61.119 264.153 61.26 265.997 61.26C268.32 61.26 268.578 60.997 268.167 59.046C267.933 57.932 267.838 54.4 267.838 46.739C267.838 34.397 268.15 35.632 265.047 35.683C262.92 35.718 262.122 36.07 262.354 36.868C263.543 40.959 263.741 52.822 262.656 54.953C260.371 59.441 253.755 59.633 251.733 55.27C251.077 53.855 250.787 43.87 251.265 39.125C251.476 37.028 251.467 36.316 251.226 36.074C250.815 35.662 248.287 35.443 247.176 35.724ZM298.567 35.737C293.765 36.41 290.099 39.348 288.242 44.011C287.367 46.208 287.366 51.831 288.241 54.027C292.892 65.705 311.784 63.863 314.04 51.512C315.849 41.607 308.699 34.317 298.567 35.737ZM322.883 36.147C317.374 37.843 315.684 44.014 319.703 47.756C320.11 48.134 321.617 49.2 323.053 50.123C326.556 52.374 327.174 53.124 327.024 54.935C326.736 58.413 322.494 59.652 318.166 57.522C316.676 56.789 316.666 56.797 316.666 58.681C316.666 64.206 329.453 62.214 331.135 56.427C332.302 52.413 330.988 50.113 325.634 46.805C322.107 44.625 321.187 43.032 322.259 40.96C323.246 39.051 326.671 38.355 329.104 39.568C330.197 40.113 330.218 40.114 330.485 39.615C331.011 38.632 330.679 36.443 329.948 36.075C329.058 35.627 324.418 35.674 322.883 36.147ZM272.439 36.228C272.157 36.406 272.206 36.786 272.696 38.242C273.287 39.996 273.301 40.263 273.31 50.322C273.321 62.12 273.138 61.26 275.634 61.26C278.206 61.26 278.199 61.273 277.899 57.316C276.959 44.955 278.567 40.456 283.825 40.728L285.547 40.817L285.699 39.255C286.073 35.415 282.778 35.088 279.069 38.596L277.677 39.912L277.531 38.499C277.289 36.145 277.128 35.999 274.795 36.003C273.69 36.006 272.63 36.107 272.439 36.228ZM233.002 38.646C237.002 39.653 238.483 44.969 235.576 47.885C232.179 51.292 225.955 49.943 224.992 45.592C223.946 40.859 227.961 37.377 233.002 38.646ZM97.786 39.22C99.936 40.23 100.781 41.663 100.781 44.297C100.781 46.271 101.233 46.156 93.474 46.156H86.992L87.14 45.309C88.105 39.783 93.01 36.977 97.786 39.22ZM165.099 39.145C167.667 40.309 169.379 44.38 167.916 45.843C167.311 46.448 154.948 46.272 154.948 45.658C154.948 40.669 160.544 37.078 165.099 39.145ZM210.672 39.145C213.087 40.24 214.602 43.377 213.775 45.57L213.554 46.156H206.902H200.25L200.408 45.44C201.703 39.567 205.912 36.985 210.672 39.145ZM303.988 39.279C310.826 41.609 311.745 53.795 305.36 57.474C299.723 60.723 292.92 57.108 292.168 50.464C291.244 42.307 296.971 36.888 303.988 39.279ZM25.081 40.172C17.982 40.861 10.575 43.409 3.738 47.517C0.709999 49.336 0.564002 49.563 2.913 48.8C7.267 47.385 17.355 45.395 23.155 44.808C36.78 43.427 52.926 45.937 63.086 51.015C64.863 51.903 64.609 51.351 62.565 49.884C51.96 42.275 38.734 38.848 25.081 40.172ZM24.256 46.679C15.284 47.428 8.333 49.231 8.333 50.809C8.333 51.236 7.5 53.44 6.481 55.707C2.762 63.986 2.383 64.821 1.202 67.333C0.541 68.74 0 69.942 0 70.006C0 70.07 3.463 70.091 7.697 70.053L15.394 69.984L16.374 68.161C16.913 67.158 18.563 64.053 20.041 61.26C21.518 58.467 23.178 55.351 23.729 54.335L24.731 52.488L29.097 52.336C33.878 52.17 39.446 52.415 39.811 52.808C39.938 52.945 41.366 55.518 42.985 58.526C44.604 61.533 46.656 65.342 47.546 66.989L49.165 69.984L56.483 70.053C60.508 70.091 63.802 70.064 63.802 69.994C63.802 69.838 61.15 64.124 58.619 58.823C57.291 56.043 56.899 55.004 57.227 55.131C60.245 56.3 64.612 57.149 67.057 57.043L68.88 56.963L66.917 55.734C55.781 48.759 39.847 45.376 24.256 46.679ZM231.788 61.256C239.216 63.107 240.97 64.487 239.324 67.187C236.935 71.104 225.306 70.514 223.342 66.376C222.346 64.276 223.392 61.934 225.911 60.627C226.981 60.072 227.073 60.082 231.788 61.256Z" fill="#0A0A0A"/>
<path d="M14.5155 93.1869V83.7324H20.6647V85.1681H16.2282V87.7349H20.3461V89.1706H16.2282V91.7512H20.7016V93.1869H14.5155ZM25.9298 86.096V87.3886H21.738V86.096H25.9298ZM22.786 93.1869V85.4266C22.786 84.9496 22.8844 84.5526 23.0814 84.2356C23.2815 83.9186 23.5492 83.6816 23.8847 83.5246C24.2201 83.3677 24.5925 83.2892 25.0019 83.2892C25.2912 83.2892 25.5481 83.3123 25.7728 83.3584C25.9975 83.4046 26.1637 83.4461 26.2714 83.4831L25.939 84.7757C25.8682 84.7541 25.779 84.7326 25.6713 84.7111C25.5635 84.6864 25.4435 84.6741 25.3112 84.6741C25.0003 84.6741 24.7803 84.7495 24.651 84.9003C24.5248 85.0481 24.4617 85.2604 24.4617 85.5374V93.1869H22.786ZM27.2385 93.1869V86.096H28.9097V93.1869H27.2385ZM28.0787 85.0896C27.8141 85.0896 27.5863 85.0019 27.3955 84.8265C27.2047 84.648 27.1093 84.4341 27.1093 84.1848C27.1093 83.9324 27.2047 83.7185 27.3955 83.5431C27.5863 83.3646 27.8141 83.2753 28.0787 83.2753C28.3465 83.2753 28.5742 83.3646 28.762 83.5431C28.9528 83.7185 29.0482 83.9324 29.0482 84.1848C29.0482 84.4341 28.9528 84.648 28.762 84.8265C28.5742 85.0019 28.3465 85.0896 28.0787 85.0896ZM33.7212 93.3254C33.0134 93.3254 32.4055 93.17 31.8977 92.8591C31.393 92.5483 31.0037 92.119 30.7298 91.5711C30.4589 91.0202 30.3235 90.3862 30.3235 89.6692C30.3235 88.949 30.462 88.3135 30.739 87.7626C31.016 87.2086 31.4068 86.7777 31.9116 86.4699C32.4194 86.1591 33.0195 86.0037 33.712 86.0037C34.2875 86.0037 34.7969 86.1099 35.2401 86.3222C35.6863 86.5315 36.0418 86.8285 36.3065 87.2132C36.5711 87.5948 36.7219 88.0411 36.7589 88.552H35.1616C35.0969 88.2103 34.9431 87.9257 34.6999 87.6979C34.4599 87.4671 34.1383 87.3517 33.7351 87.3517C33.3935 87.3517 33.0934 87.444 32.8349 87.6287C32.5763 87.8103 32.3748 88.0719 32.2301 88.4135C32.0885 88.7551 32.0178 89.1644 32.0178 89.6415C32.0178 90.1246 32.0885 90.5401 32.2301 90.8879C32.3717 91.2326 32.5702 91.4988 32.8256 91.6866C33.0842 91.8712 33.3873 91.9635 33.7351 91.9635C33.9813 91.9635 34.2013 91.9174 34.3952 91.8251C34.5922 91.7296 34.7569 91.5927 34.8892 91.4142C35.0215 91.2357 35.1123 91.0187 35.1616 90.7633H36.7589C36.7189 91.2649 36.5711 91.7096 36.3157 92.0974C36.0603 92.4821 35.7125 92.7837 35.2724 93.0023C34.8323 93.2177 34.3152 93.3254 33.7212 93.3254ZM38.1311 93.1869V86.096H39.8023V93.1869H38.1311ZM38.9713 85.0896C38.7066 85.0896 38.4789 85.0019 38.2881 84.8265C38.0973 84.648 38.0019 84.4341 38.0019 84.1848C38.0019 83.9324 38.0973 83.7185 38.2881 83.5431C38.4789 83.3646 38.7066 83.2753 38.9713 83.2753C39.2391 83.2753 39.4668 83.3646 39.6546 83.5431C39.8454 83.7185 39.9408 83.9324 39.9408 84.1848C39.9408 84.4341 39.8454 84.648 39.6546 84.8265C39.4668 85.0019 39.2391 85.0896 38.9713 85.0896ZM44.66 93.3254C43.949 93.3254 43.335 93.1777 42.818 92.8822C42.304 92.5837 41.9086 92.1621 41.6316 91.6173C41.3546 91.0695 41.2161 90.4247 41.2161 89.683C41.2161 88.9536 41.3546 88.3135 41.6316 87.7626C41.9116 87.2086 42.3025 86.7777 42.8042 86.4699C43.3058 86.1591 43.8952 86.0037 44.5723 86.0037C45.0093 86.0037 45.4217 86.0745 45.8095 86.216C46.2003 86.3545 46.545 86.57 46.8436 86.8623C47.1452 87.1547 47.3822 87.5271 47.5545 87.9795C47.7269 88.4289 47.813 88.9644 47.813 89.5861V90.0985H42.0009V88.9721H46.2111C46.208 88.652 46.1388 88.3673 46.0034 88.118C45.868 87.8657 45.6787 87.6671 45.4355 87.5225C45.1955 87.3778 44.9154 87.3055 44.5953 87.3055C44.2537 87.3055 43.9537 87.3886 43.6951 87.5548C43.4366 87.7179 43.235 87.9334 43.0904 88.2011C42.9488 88.4658 42.8765 88.7566 42.8734 89.0736V90.0569C42.8734 90.4693 42.9488 90.8233 43.0996 91.1187C43.2504 91.4111 43.4612 91.6358 43.7321 91.7927C44.0029 91.9466 44.3199 92.0236 44.6831 92.0236C44.9262 92.0236 45.1462 91.9897 45.3432 91.922C45.5402 91.8512 45.711 91.7481 45.8556 91.6127C46.0003 91.4773 46.1096 91.3095 46.1834 91.1095L47.7438 91.2849C47.6453 91.6973 47.4576 92.0574 47.1806 92.3652C46.9067 92.6699 46.5558 92.9068 46.128 93.0761C45.7002 93.2423 45.2109 93.3254 44.66 93.3254ZM50.898 89.0321V93.1869H49.2268V86.096H50.8241V87.3009H50.9072C51.0703 86.9039 51.3304 86.5884 51.6874 86.3545C52.0475 86.1206 52.4922 86.0037 53.0216 86.0037C53.5109 86.0037 53.9372 86.1083 54.3003 86.3176C54.6666 86.5269 54.9497 86.83 55.1498 87.227C55.3529 87.6241 55.4529 88.1057 55.4498 88.672V93.1869H53.7787V88.9305C53.7787 88.4566 53.6556 88.0857 53.4094 87.8179C53.1662 87.5502 52.8292 87.4163 52.3983 87.4163C52.106 87.4163 51.8459 87.4809 51.6182 87.6102C51.3935 87.7364 51.2165 87.9195 51.0873 88.1596C50.9611 88.3996 50.898 88.6905 50.898 89.0321ZM60.6895 86.096V87.3886H56.6132V86.096H60.6895ZM57.6196 84.3971H59.2907V91.0541C59.2907 91.2788 59.3246 91.4511 59.3923 91.5711C59.4631 91.6881 59.5554 91.7681 59.6693 91.8112C59.7832 91.8543 59.9094 91.8758 60.0479 91.8758C60.1525 91.8758 60.2479 91.8681 60.3341 91.8527C60.4233 91.8374 60.491 91.8235 60.5372 91.8112L60.8188 93.1177C60.7296 93.1484 60.6018 93.1823 60.4356 93.2192C60.2725 93.2562 60.0725 93.2777 59.8355 93.2839C59.4169 93.2962 59.0399 93.2331 58.7045 93.0946C58.369 92.953 58.1028 92.7345 57.9058 92.439C57.7119 92.1436 57.6165 91.7743 57.6196 91.3311V84.3971ZM65.1502 93.3254C64.4393 93.3254 63.8253 93.1777 63.3082 92.8822C62.7943 92.5837 62.3988 92.1621 62.1218 91.6173C61.8448 91.0695 61.7063 90.4247 61.7063 89.683C61.7063 88.9536 61.8448 88.3135 62.1218 87.7626C62.4019 87.2086 62.7927 86.7777 63.2944 86.4699C63.796 86.1591 64.3854 86.0037 65.0625 86.0037C65.4995 86.0037 65.9119 86.0745 66.2997 86.216C66.6906 86.3545 67.0353 86.57 67.3338 86.8623C67.6354 87.1547 67.8724 87.5271 68.0447 87.9795C68.2171 88.4289 68.3033 88.9644 68.3033 89.5861V90.0985H62.4911V88.9721H66.7013C66.6983 88.652 66.629 88.3673 66.4936 88.118C66.3582 87.8657 66.1689 87.6671 65.9258 87.5225C65.6857 87.3778 65.4057 87.3055 65.0856 87.3055C64.744 87.3055 64.4439 87.3886 64.1854 87.5548C63.9268 87.7179 63.7253 87.9334 63.5806 88.2011C63.439 88.4658 63.3667 88.7566 63.3636 89.0736V90.0569C63.3636 90.4693 63.439 90.8233 63.5898 91.1187C63.7406 91.4111 63.9515 91.6358 64.2223 91.7927C64.4931 91.9466 64.8101 92.0236 65.1733 92.0236C65.4164 92.0236 65.6365 91.9897 65.8335 91.922C66.0304 91.8512 66.2012 91.7481 66.3459 91.6127C66.4905 91.4773 66.5998 91.3095 66.6737 91.1095L68.234 91.2849C68.1355 91.6973 67.9478 92.0574 67.6708 92.3652C67.3969 92.6699 67.046 92.9068 66.6183 93.0761C66.1905 93.2423 65.7011 93.3254 65.1502 93.3254ZM76.0809 93.3254C75.3699 93.3254 74.7559 93.1777 74.2389 92.8822C73.7249 92.5837 73.3295 92.1621 73.0525 91.6173C72.7755 91.0695 72.637 90.4247 72.637 89.683C72.637 88.9536 72.7755 88.3135 73.0525 87.7626C73.3325 87.2086 73.7234 86.7777 74.2251 86.4699C74.7267 86.1591 75.3161 86.0037 75.9932 86.0037C76.4302 86.0037 76.8426 86.0745 77.2304 86.216C77.6212 86.3545 77.9659 86.57 78.2645 86.8623C78.5661 87.1547 78.8031 87.5271 78.9754 87.9795C79.1478 88.4289 79.2339 88.9644 79.2339 89.5861V90.0985H73.4218V88.9721H77.632C77.6289 88.652 77.5597 88.3673 77.4243 88.118C77.2889 87.8657 77.0996 87.6671 76.8564 87.5225C76.6164 87.3778 76.3363 87.3055 76.0162 87.3055C75.6746 87.3055 75.3746 87.3886 75.116 87.5548C74.8575 87.7179 74.6559 87.9334 74.5113 88.2011C74.3697 88.4658 74.2974 88.7566 74.2943 89.0736V90.0569C74.2943 90.4693 74.3697 90.8233 74.5205 91.1187C74.6713 91.4111 74.8821 91.6358 75.153 91.7927C75.4238 91.9466 75.7408 92.0236 76.104 92.0236C76.3471 92.0236 76.5671 91.9897 76.7641 91.922C76.9611 91.8512 77.1319 91.7481 77.2765 91.6127C77.4212 91.4773 77.5305 91.3095 77.6043 91.1095L79.1647 91.2849C79.0662 91.6973 78.8785 92.0574 78.6015 92.3652C78.3276 92.6699 77.9767 92.9068 77.5489 93.0761C77.1211 93.2423 76.6318 93.3254 76.0809 93.3254ZM92.0389 86.9224H90.3123C90.2631 86.6392 90.1723 86.3884 90.04 86.1699C89.9076 85.9483 89.743 85.7605 89.546 85.6067C89.349 85.4528 89.1243 85.3374 88.872 85.2604C88.6227 85.1804 88.3534 85.1404 88.0641 85.1404C87.5501 85.1404 87.0946 85.2697 86.6976 85.5282C86.3006 85.7836 85.9898 86.1591 85.7651 86.6546C85.5404 87.147 85.4281 87.7487 85.4281 88.4596C85.4281 89.1829 85.5404 89.7923 85.7651 90.2878C85.9928 90.7802 86.3037 91.1526 86.6976 91.405C87.0946 91.6542 87.5486 91.7789 88.0595 91.7789C88.3426 91.7789 88.6073 91.742 88.8535 91.6681C89.1028 91.5911 89.3259 91.4788 89.5229 91.3311C89.723 91.1834 89.8907 91.0018 90.0261 90.7863C90.1646 90.5709 90.26 90.3247 90.3123 90.0477L92.0389 90.0569C91.9743 90.5063 91.8342 90.9279 91.6188 91.3219C91.4064 91.7158 91.1279 92.0636 90.7832 92.3652C90.4385 92.6637 90.0353 92.8976 89.5737 93.0669C89.112 93.2331 88.5996 93.3162 88.0364 93.3162C87.2054 93.3162 86.4637 93.1238 85.8113 92.7391C85.1588 92.3544 84.6448 91.7989 84.2694 91.0726C83.8939 90.3462 83.7061 89.4753 83.7061 88.4596C83.7061 87.4409 83.8954 86.57 84.274 85.8467C84.6525 85.1204 85.168 84.5649 85.8205 84.1802C86.473 83.7955 87.2116 83.6031 88.0364 83.6031C88.5627 83.6031 89.052 83.677 89.5044 83.8247C89.9569 83.9724 90.36 84.1894 90.714 84.4756C91.0679 84.7588 91.3587 85.1065 91.5865 85.5189C91.8173 85.9283 91.9681 86.3961 92.0389 86.9224ZM96.6265 93.3254C95.934 93.3254 95.3339 93.1731 94.8261 92.8684C94.3183 92.5637 93.9243 92.1374 93.6443 91.5896C93.3673 91.0418 93.2288 90.4016 93.2288 89.6692C93.2288 88.9367 93.3673 88.295 93.6443 87.7441C93.9243 87.1932 94.3183 86.7654 94.8261 86.4607C95.3339 86.156 95.934 86.0037 96.6265 86.0037C97.319 86.0037 97.9191 86.156 98.4269 86.4607C98.9347 86.7654 99.3271 87.1932 99.6041 87.7441C99.8842 88.295 100.024 88.9367 100.024 89.6692C100.024 90.4016 99.8842 91.0418 99.6041 91.5896C99.3271 92.1374 98.9347 92.5637 98.4269 92.8684C97.9191 93.1731 97.319 93.3254 96.6265 93.3254ZM96.6357 91.9866C97.0112 91.9866 97.3251 91.8835 97.5775 91.6773C97.8299 91.468 98.0176 91.188 98.1407 90.8371C98.2669 90.4863 98.33 90.0954 98.33 89.6645C98.33 89.2306 98.2669 88.8382 98.1407 88.4873C98.0176 88.1334 97.8299 87.8518 97.5775 87.6425C97.3251 87.4332 97.0112 87.3286 96.6357 87.3286C96.251 87.3286 95.931 87.4332 95.6755 87.6425C95.4231 87.8518 95.2339 88.1334 95.1077 88.4873C94.9846 88.8382 94.923 89.2306 94.923 89.6645C94.923 90.0954 94.9846 90.4863 95.1077 90.8371C95.2339 91.188 95.4231 91.468 95.6755 91.6773C95.931 91.8835 96.251 91.9866 96.6357 91.9866ZM103.114 89.0321V93.1869H101.443V86.096H103.04V87.3009H103.123C103.286 86.9039 103.546 86.5884 103.903 86.3545C104.263 86.1206 104.708 86.0037 105.237 86.0037C105.727 86.0037 106.153 86.1083 106.516 86.3176C106.882 86.5269 107.166 86.83 107.366 87.227C107.569 87.6241 107.669 88.1057 107.666 88.672V93.1869H105.994V88.9305C105.994 88.4566 105.871 88.0857 105.625 87.8179C105.382 87.5502 105.045 87.4163 104.614 87.4163C104.322 87.4163 104.062 87.4809 103.834 87.6102C103.609 87.7364 103.432 87.9195 103.303 88.1596C103.177 88.3996 103.114 88.6905 103.114 89.0321ZM112.956 86.096V87.3886H108.764V86.096H112.956ZM109.812 93.1869V85.4266C109.812 84.9496 109.911 84.5526 110.108 84.2356C110.308 83.9186 110.576 83.6816 110.911 83.5246C111.247 83.3677 111.619 83.2892 112.028 83.2892C112.318 83.2892 112.575 83.3123 112.799 83.3584C113.024 83.4046 113.19 83.4461 113.298 83.4831L112.965 84.7757C112.895 84.7541 112.805 84.7326 112.698 84.7111C112.59 84.6864 112.47 84.6741 112.338 84.6741C112.027 84.6741 111.807 84.7495 111.677 84.9003C111.551 85.0481 111.488 85.2604 111.488 85.5374V93.1869H109.812ZM114.265 93.1869V86.096H115.936V93.1869H114.265ZM115.105 85.0896C114.84 85.0896 114.613 85.0019 114.422 84.8265C114.231 84.648 114.136 84.4341 114.136 84.1848C114.136 83.9324 114.231 83.7185 114.422 83.5431C114.613 83.3646 114.84 83.2753 115.105 83.2753C115.373 83.2753 115.601 83.3646 115.788 83.5431C115.979 83.7185 116.075 83.9324 116.075 84.1848C116.075 84.4341 115.979 84.648 115.788 84.8265C115.601 85.0019 115.373 85.0896 115.105 85.0896ZM119.695 93.33C119.246 93.33 118.841 93.25 118.481 93.09C118.124 92.9269 117.841 92.6868 117.631 92.3698C117.425 92.0528 117.322 91.6619 117.322 91.1972C117.322 90.7971 117.396 90.4663 117.544 90.2047C117.691 89.9431 117.893 89.7338 118.149 89.5768C118.404 89.4199 118.692 89.3014 119.012 89.2214C119.335 89.1383 119.669 89.0782 120.014 89.0413C120.429 88.9982 120.766 88.9598 121.025 88.9259C121.283 88.889 121.471 88.8336 121.588 88.7597C121.708 88.6828 121.768 88.5643 121.768 88.4042V88.3765C121.768 88.0288 121.665 87.7595 121.459 87.5687C121.252 87.3778 120.955 87.2824 120.568 87.2824C120.158 87.2824 119.834 87.3717 119.593 87.5502C119.357 87.7287 119.196 87.9395 119.113 88.1827L117.553 87.9611C117.676 87.5302 117.879 87.1701 118.162 86.8808C118.446 86.5884 118.792 86.3699 119.201 86.2253C119.61 86.0775 120.063 86.0037 120.558 86.0037C120.9 86.0037 121.24 86.0437 121.579 86.1237C121.917 86.2037 122.226 86.3361 122.506 86.5207C122.787 86.7023 123.011 86.9501 123.18 87.264C123.353 87.5779 123.439 87.9703 123.439 88.4412V93.1869H121.832V92.2128H121.777C121.676 92.4098 121.532 92.5945 121.348 92.7668C121.166 92.9361 120.937 93.073 120.66 93.1777C120.386 93.2792 120.064 93.33 119.695 93.33ZM120.129 92.102C120.464 92.102 120.755 92.0359 121.002 91.9035C121.248 91.7681 121.437 91.5896 121.569 91.368C121.705 91.1464 121.772 90.9048 121.772 90.6432V89.8077C121.72 89.8507 121.631 89.8907 121.505 89.9277C121.382 89.9646 121.243 89.9969 121.089 90.0246C120.935 90.0523 120.783 90.0769 120.632 90.0985C120.481 90.12 120.351 90.1385 120.24 90.1539C119.991 90.1877 119.767 90.2431 119.57 90.3201C119.373 90.397 119.218 90.5047 119.104 90.6432C118.99 90.7786 118.933 90.9541 118.933 91.1695C118.933 91.4773 119.046 91.7096 119.27 91.8666C119.495 92.0236 119.781 92.102 120.129 92.102ZM119.991 85.1635L121.025 83.0537H122.659L121.242 85.1635H119.991ZM131.199 86.096L128.674 93.1869H126.828L124.302 86.096H126.084L127.714 91.3634H127.788L129.422 86.096H131.199ZM135.254 93.3254C134.543 93.3254 133.929 93.1777 133.412 92.8822C132.898 92.5837 132.502 92.1621 132.225 91.6173C131.948 91.0695 131.81 90.4247 131.81 89.683C131.81 88.9536 131.948 88.3135 132.225 87.7626C132.505 87.2086 132.896 86.7777 133.398 86.4699C133.9 86.1591 134.489 86.0037 135.166 86.0037C135.603 86.0037 136.015 86.0745 136.403 86.216C136.794 86.3545 137.139 86.57 137.437 86.8623C137.739 87.1547 137.976 87.5271 138.148 87.9795C138.321 88.4289 138.407 88.9644 138.407 89.5861V90.0985H132.595V88.9721H136.805C136.802 88.652 136.733 88.3673 136.597 88.118C136.462 87.8657 136.272 87.6671 136.029 87.5225C135.789 87.3778 135.509 87.3055 135.189 87.3055C134.847 87.3055 134.547 87.3886 134.289 87.5548C134.03 87.7179 133.829 87.9334 133.684 88.2011C133.543 88.4658 133.47 88.7566 133.467 89.0736V90.0569C133.467 90.4693 133.543 90.8233 133.693 91.1187C133.844 91.4111 134.055 91.6358 134.326 91.7927C134.597 91.9466 134.914 92.0236 135.277 92.0236C135.52 92.0236 135.74 91.9897 135.937 91.922C136.134 91.8512 136.305 91.7481 136.449 91.6127C136.594 91.4773 136.703 91.3095 136.777 91.1095L138.338 91.2849C138.239 91.6973 138.051 92.0574 137.774 92.3652C137.5 92.6699 137.15 92.9068 136.722 93.0761C136.294 93.2423 135.805 93.3254 135.254 93.3254ZM141.492 83.7324V93.1869H139.821V83.7324H141.492ZM145.172 91.8943L145.112 92.4021C145.069 92.7899 144.992 93.1838 144.881 93.5839C144.774 93.9871 144.66 94.358 144.54 94.6965C144.42 95.035 144.323 95.3013 144.249 95.4952H143.123C143.166 95.3074 143.224 95.052 143.298 94.7288C143.375 94.4057 143.449 94.0425 143.52 93.6393C143.59 93.2362 143.638 92.8268 143.663 92.4113L143.695 91.8943H145.172ZM150.051 83.7324H152.147L154.953 90.5832H155.064L157.871 83.7324H159.967V93.1869H158.323V86.6915H158.236L155.623 93.1592H154.395L151.782 86.6777H151.694V93.1869H150.051V83.7324ZM164.897 93.3254C164.186 93.3254 163.572 93.1777 163.055 92.8822C162.541 92.5837 162.146 92.1621 161.869 91.6173C161.592 91.0695 161.453 90.4247 161.453 89.683C161.453 88.9536 161.592 88.3135 161.869 87.7626C162.149 87.2086 162.54 86.7777 163.041 86.4699C163.543 86.1591 164.132 86.0037 164.81 86.0037C165.247 86.0037 165.659 86.0745 166.047 86.216C166.438 86.3545 166.782 86.57 167.081 86.8623C167.382 87.1547 167.619 87.5271 167.792 87.9795C167.964 88.4289 168.05 88.9644 168.05 89.5861V90.0985H162.238V88.9721H166.448C166.445 88.652 166.376 88.3673 166.241 88.118C166.105 87.8657 165.916 87.6671 165.673 87.5225C165.433 87.3778 165.153 87.3055 164.833 87.3055C164.491 87.3055 164.191 87.3886 163.932 87.5548C163.674 87.7179 163.472 87.9334 163.328 88.2011C163.186 88.4658 163.114 88.7566 163.111 89.0736V90.0569C163.111 90.4693 163.186 90.8233 163.337 91.1187C163.488 91.4111 163.699 91.6358 163.969 91.7927C164.24 91.9466 164.557 92.0236 164.92 92.0236C165.164 92.0236 165.384 91.9897 165.581 91.922C165.777 91.8512 165.948 91.7481 166.093 91.6127C166.238 91.4773 166.347 91.3095 166.421 91.1095L167.981 91.2849C167.883 91.6973 167.695 92.0574 167.418 92.3652C167.144 92.6699 166.793 92.9068 166.365 93.0761C165.938 93.2423 165.448 93.3254 164.897 93.3254ZM172.096 93.3116C171.538 93.3116 171.04 93.1684 170.6 92.8822C170.16 92.596 169.812 92.1805 169.556 91.6358C169.301 91.091 169.173 90.4293 169.173 89.6507C169.173 88.8628 169.303 88.198 169.561 87.6564C169.823 87.1116 170.175 86.7008 170.618 86.4238C171.061 86.1437 171.555 86.0037 172.1 86.0037C172.516 86.0037 172.857 86.0745 173.125 86.216C173.393 86.3545 173.605 86.5223 173.762 86.7192C173.919 86.9131 174.041 87.0962 174.127 87.2686H174.196V83.7324H175.872V93.1869H174.228V92.0697H174.127C174.041 92.2421 173.916 92.4252 173.753 92.6191C173.59 92.8099 173.374 92.973 173.107 93.1084C172.839 93.2438 172.502 93.3116 172.096 93.3116ZM172.562 91.9405C172.916 91.9405 173.217 91.8451 173.467 91.6542C173.716 91.4603 173.905 91.1911 174.034 90.8464C174.164 90.5017 174.228 90.1 174.228 89.6415C174.228 89.1829 174.164 88.7843 174.034 88.4458C173.908 88.1072 173.721 87.8441 173.471 87.6564C173.225 87.4686 172.922 87.3748 172.562 87.3748C172.189 87.3748 171.879 87.4717 171.629 87.6656C171.38 87.8595 171.192 88.1273 171.066 88.4689C170.94 88.8105 170.877 89.2014 170.877 89.6415C170.877 90.0846 170.94 90.4801 171.066 90.8279C171.195 91.1726 171.385 91.445 171.634 91.645C171.886 91.842 172.196 91.9405 172.562 91.9405ZM177.653 93.1869V86.096H179.324V93.1869H177.653ZM178.493 85.0896C178.228 85.0896 178 85.0019 177.81 84.8265C177.619 84.648 177.523 84.4341 177.523 84.1848C177.523 83.9324 177.619 83.7185 177.81 83.5431C178 83.3646 178.228 83.2753 178.493 83.2753C178.761 83.2753 178.988 83.3646 179.176 83.5431C179.367 83.7185 179.462 83.9324 179.462 84.1848C179.462 84.4341 179.367 84.648 179.176 84.8265C178.988 85.0019 178.761 85.0896 178.493 85.0896ZM183.083 93.33C182.633 93.33 182.229 93.25 181.869 93.09C181.512 92.9269 181.228 92.6868 181.019 92.3698C180.813 92.0528 180.71 91.6619 180.71 91.1972C180.71 90.7971 180.784 90.4663 180.931 90.2047C181.079 89.9431 181.281 89.7338 181.536 89.5768C181.792 89.4199 182.079 89.3014 182.4 89.2214C182.723 89.1383 183.057 89.0782 183.401 89.0413C183.817 88.9982 184.154 88.9598 184.412 88.9259C184.671 88.889 184.859 88.8336 184.975 88.7597C185.096 88.6828 185.156 88.5643 185.156 88.4042V88.3765C185.156 88.0288 185.052 87.7595 184.846 87.5687C184.64 87.3778 184.343 87.2824 183.955 87.2824C183.546 87.2824 183.221 87.3717 182.981 87.5502C182.744 87.7287 182.584 87.9395 182.501 88.1827L180.941 87.9611C181.064 87.5302 181.267 87.1701 181.55 86.8808C181.833 86.5884 182.179 86.3699 182.589 86.2253C182.998 86.0775 183.451 86.0037 183.946 86.0037C184.288 86.0037 184.628 86.0437 184.966 86.1237C185.305 86.2037 185.614 86.3361 185.894 86.5207C186.174 86.7023 186.399 86.9501 186.568 87.264C186.741 87.5779 186.827 87.9703 186.827 88.4412V93.1869H185.22V92.2128H185.165C185.063 92.4098 184.92 92.5945 184.735 92.7668C184.554 92.9361 184.325 93.073 184.048 93.1777C183.774 93.2792 183.452 93.33 183.083 93.33ZM183.517 92.102C183.852 92.102 184.143 92.0359 184.389 91.9035C184.635 91.7681 184.825 91.5896 184.957 91.368C185.092 91.1464 185.16 90.9048 185.16 90.6432V89.8077C185.108 89.8507 185.019 89.8907 184.892 89.9277C184.769 89.9646 184.631 89.9969 184.477 90.0246C184.323 90.0523 184.171 90.0769 184.02 90.0985C183.869 90.12 183.738 90.1385 183.627 90.1539C183.378 90.1877 183.155 90.2431 182.958 90.3201C182.761 90.397 182.606 90.5047 182.492 90.6432C182.378 90.7786 182.321 90.9541 182.321 91.1695C182.321 91.4773 182.433 91.7096 182.658 91.8666C182.883 92.0236 183.169 92.102 183.517 92.102ZM191.6 93.3254C190.892 93.3254 190.284 93.17 189.777 92.8591C189.272 92.5483 188.883 92.119 188.609 91.5711C188.338 91.0202 188.202 90.3862 188.202 89.6692C188.202 88.949 188.341 88.3135 188.618 87.7626C188.895 87.2086 189.286 86.7777 189.79 86.4699C190.298 86.1591 190.898 86.0037 191.591 86.0037C192.166 86.0037 192.676 86.1099 193.119 86.3222C193.565 86.5315 193.921 86.8285 194.185 87.2132C194.45 87.5948 194.601 88.0411 194.638 88.552H193.04C192.976 88.2103 192.822 87.9257 192.579 87.6979C192.339 87.4671 192.017 87.3517 191.614 87.3517C191.272 87.3517 190.972 87.444 190.714 87.6287C190.455 87.8103 190.254 88.0719 190.109 88.4135C189.967 88.7551 189.897 89.1644 189.897 89.6415C189.897 90.1246 189.967 90.5401 190.109 90.8879C190.251 91.2326 190.449 91.4988 190.705 91.6866C190.963 91.8712 191.266 91.9635 191.614 91.9635C191.86 91.9635 192.08 91.9174 192.274 91.8251C192.471 91.7296 192.636 91.5927 192.768 91.4142C192.9 91.2357 192.991 91.0187 193.04 90.7633H194.638C194.598 91.2649 194.45 91.7096 194.195 92.0974C193.939 92.4821 193.591 92.7837 193.151 93.0023C192.711 93.2177 192.194 93.3254 191.6 93.3254ZM191.12 93.15H192.025L191.951 93.5424C192.24 93.5855 192.485 93.6963 192.685 93.8748C192.888 94.0563 192.99 94.3164 192.99 94.655C192.993 95.092 192.797 95.4428 192.403 95.7075C192.009 95.9722 191.448 96.1045 190.718 96.1045L190.7 95.2828C191.054 95.2828 191.335 95.2351 191.545 95.1397C191.754 95.0474 191.86 94.8996 191.863 94.6965C191.869 94.4995 191.796 94.3549 191.642 94.2626C191.491 94.1733 191.251 94.1117 190.922 94.0779L191.12 93.15ZM198.051 93.33C197.601 93.33 197.196 93.25 196.836 93.09C196.479 92.9269 196.196 92.6868 195.987 92.3698C195.781 92.0528 195.678 91.6619 195.678 91.1972C195.678 90.7971 195.752 90.4663 195.899 90.2047C196.047 89.9431 196.249 89.7338 196.504 89.5768C196.759 89.4199 197.047 89.3014 197.367 89.2214C197.69 89.1383 198.024 89.0782 198.369 89.0413C198.785 88.9982 199.122 88.9598 199.38 88.9259C199.639 88.889 199.826 88.8336 199.943 88.7597C200.063 88.6828 200.123 88.5643 200.123 88.4042V88.3765C200.123 88.0288 200.02 87.7595 199.814 87.5687C199.608 87.3778 199.311 87.2824 198.923 87.2824C198.514 87.2824 198.189 87.3717 197.949 87.5502C197.712 87.7287 197.552 87.9395 197.469 88.1827L195.908 87.9611C196.032 87.5302 196.235 87.1701 196.518 86.8808C196.801 86.5884 197.147 86.3699 197.557 86.2253C197.966 86.0775 198.418 86.0037 198.914 86.0037C199.255 86.0037 199.595 86.0437 199.934 86.1237C200.273 86.2037 200.582 86.3361 200.862 86.5207C201.142 86.7023 201.367 86.9501 201.536 87.264C201.708 87.5779 201.794 87.9703 201.794 88.4412V93.1869H200.188V92.2128H200.133C200.031 92.4098 199.888 92.5945 199.703 92.7668C199.522 92.9361 199.292 93.073 199.015 93.1777C198.741 93.2792 198.42 93.33 198.051 93.33ZM198.484 92.102C198.82 92.102 199.111 92.0359 199.357 91.9035C199.603 91.7681 199.792 91.5896 199.925 91.368C200.06 91.1464 200.128 90.9048 200.128 90.6432V89.8077C200.076 89.8507 199.986 89.8907 199.86 89.9277C199.737 89.9646 199.599 89.9969 199.445 90.0246C199.291 90.0523 199.138 90.0769 198.988 90.0985C198.837 90.12 198.706 90.1385 198.595 90.1539C198.346 90.1877 198.123 90.2431 197.926 90.3201C197.729 90.397 197.573 90.5047 197.46 90.6432C197.346 90.7786 197.289 90.9541 197.289 91.1695C197.289 91.4773 197.401 91.7096 197.626 91.8666C197.85 92.0236 198.137 92.102 198.484 92.102ZM197.63 85.2327L196.619 85.2096C196.619 84.6618 196.761 84.2325 197.044 83.9216C197.327 83.6108 197.677 83.4554 198.092 83.4554C198.292 83.4554 198.466 83.4892 198.614 83.5569C198.761 83.6216 198.897 83.697 199.02 83.7831C199.146 83.8693 199.269 83.9463 199.389 84.014C199.509 84.0786 199.642 84.1109 199.786 84.1109C199.962 84.1109 200.1 84.0447 200.202 83.9124C200.306 83.7801 200.36 83.6108 200.363 83.4046L201.356 83.4461C201.353 83.997 201.21 84.4248 200.927 84.7295C200.643 85.0311 200.296 85.1835 199.883 85.1866C199.662 85.1896 199.475 85.1573 199.325 85.0896C199.174 85.0219 199.042 84.945 198.928 84.8588C198.817 84.7726 198.705 84.6972 198.591 84.6326C198.477 84.5649 198.343 84.531 198.189 84.531C198.026 84.531 197.892 84.5956 197.787 84.7249C197.683 84.8542 197.63 85.0234 197.63 85.2327ZM206.568 93.3254C205.875 93.3254 205.275 93.1731 204.767 92.8684C204.26 92.5637 203.866 92.1374 203.586 91.5896C203.309 91.0418 203.17 90.4016 203.17 89.6692C203.17 88.9367 203.309 88.295 203.586 87.7441C203.866 87.1932 204.26 86.7654 204.767 86.4607C205.275 86.156 205.875 86.0037 206.568 86.0037C207.26 86.0037 207.861 86.156 208.368 86.4607C208.876 86.7654 209.269 87.1932 209.546 87.7441C209.826 88.295 209.966 88.9367 209.966 89.6692C209.966 90.4016 209.826 91.0418 209.546 91.5896C209.269 92.1374 208.876 92.5637 208.368 92.8684C207.861 93.1731 207.26 93.3254 206.568 93.3254ZM206.577 91.9866C206.953 91.9866 207.267 91.8835 207.519 91.6773C207.771 91.468 207.959 91.188 208.082 90.8371C208.208 90.4863 208.271 90.0954 208.271 89.6645C208.271 89.2306 208.208 88.8382 208.082 88.4873C207.959 88.1334 207.771 87.8518 207.519 87.6425C207.267 87.4332 206.953 87.3286 206.577 87.3286C206.192 87.3286 205.872 87.4332 205.617 87.6425C205.365 87.8518 205.175 88.1334 205.049 88.4873C204.926 88.8382 204.864 89.2306 204.864 89.6645C204.864 90.0954 204.926 90.4863 205.049 90.8371C205.175 91.188 205.365 91.468 205.617 91.6773C205.872 91.8835 206.192 91.9866 206.577 91.9866ZM217.24 93.3116C216.683 93.3116 216.184 93.1684 215.744 92.8822C215.304 92.596 214.956 92.1805 214.701 91.6358C214.446 91.091 214.318 90.4293 214.318 89.6507C214.318 88.8628 214.447 88.198 214.706 87.6564C214.967 87.1116 215.32 86.7008 215.763 86.4238C216.206 86.1437 216.7 86.0037 217.245 86.0037C217.66 86.0037 218.002 86.0745 218.27 86.216C218.537 86.3545 218.75 86.5223 218.907 86.7192C219.064 86.9131 219.185 87.0962 219.271 87.2686H219.341V83.7324H221.016V93.1869H219.373V92.0697H219.271C219.185 92.2421 219.06 92.4252 218.897 92.6191C218.734 92.8099 218.519 92.973 218.251 93.1084C217.983 93.2438 217.646 93.3116 217.24 93.3116ZM217.706 91.9405C218.06 91.9405 218.362 91.8451 218.611 91.6542C218.86 91.4603 219.05 91.1911 219.179 90.8464C219.308 90.5017 219.373 90.1 219.373 89.6415C219.373 89.1829 219.308 88.7843 219.179 88.4458C219.053 88.1072 218.865 87.8441 218.616 87.6564C218.37 87.4686 218.066 87.3748 217.706 87.3748C217.334 87.3748 217.023 87.4717 216.774 87.6656C216.525 87.8595 216.337 88.1273 216.211 88.4689C216.084 88.8105 216.021 89.2014 216.021 89.6415C216.021 90.0846 216.084 90.4801 216.211 90.8279C216.34 91.1726 216.529 91.445 216.778 91.645C217.031 91.842 217.34 91.9405 217.706 91.9405ZM225.936 93.3254C225.225 93.3254 224.611 93.1777 224.094 92.8822C223.58 92.5837 223.185 92.1621 222.908 91.6173C222.631 91.0695 222.492 90.4247 222.492 89.683C222.492 88.9536 222.631 88.3135 222.908 87.7626C223.188 87.2086 223.579 86.7777 224.081 86.4699C224.582 86.1591 225.172 86.0037 225.849 86.0037C226.286 86.0037 226.698 86.0745 227.086 86.216C227.477 86.3545 227.821 86.57 228.12 86.8623C228.422 87.1547 228.659 87.5271 228.831 87.9795C229.003 88.4289 229.089 88.9644 229.089 89.5861V90.0985H223.277V88.9721H227.487C227.484 88.652 227.415 88.3673 227.28 88.118C227.144 87.8657 226.955 87.6671 226.712 87.5225C226.472 87.3778 226.192 87.3055 225.872 87.3055C225.53 87.3055 225.23 87.3886 224.972 87.5548C224.713 87.7179 224.511 87.9334 224.367 88.2011C224.225 88.4658 224.153 88.7566 224.15 89.0736V90.0569C224.15 90.4693 224.225 90.8233 224.376 91.1187C224.527 91.4111 224.738 91.6358 225.008 91.7927C225.279 91.9466 225.596 92.0236 225.959 92.0236C226.203 92.0236 226.423 91.9897 226.62 91.922C226.817 91.8512 226.987 91.7481 227.132 91.6127C227.277 91.4773 227.386 91.3095 227.46 91.1095L229.02 91.2849C228.922 91.6973 228.734 92.0574 228.457 92.3652C228.183 92.6699 227.832 92.9068 227.404 93.0761C226.977 93.2423 226.487 93.3254 225.936 93.3254ZM238.94 86.3314C238.897 85.9283 238.715 85.6144 238.395 85.3897C238.078 85.165 237.666 85.0527 237.158 85.0527C236.801 85.0527 236.495 85.1065 236.239 85.2143C235.984 85.322 235.788 85.4682 235.653 85.6528C235.517 85.8375 235.448 86.0483 235.445 86.2853C235.445 86.4822 235.49 86.6531 235.579 86.7977C235.671 86.9424 235.796 87.0655 235.953 87.167C236.11 87.2655 236.284 87.3486 236.475 87.4163C236.665 87.484 236.858 87.541 237.052 87.5871L237.938 87.8087C238.295 87.8918 238.638 88.0041 238.968 88.1457C239.3 88.2873 239.597 88.4658 239.858 88.6812C240.123 88.8967 240.332 89.1567 240.486 89.4614C240.64 89.7661 240.717 90.1231 240.717 90.5324C240.717 91.0864 240.576 91.5742 240.292 91.9959C240.009 92.4144 239.6 92.7422 239.064 92.9792C238.532 93.2131 237.887 93.33 237.13 93.33C236.395 93.33 235.756 93.2161 235.214 92.9884C234.676 92.7607 234.254 92.4283 233.949 91.9912C233.648 91.5542 233.485 91.0218 233.46 90.3939H235.145C235.17 90.7233 235.271 90.9972 235.45 91.2157C235.628 91.4342 235.861 91.5973 236.147 91.705C236.436 91.8127 236.759 91.8666 237.116 91.8666C237.489 91.8666 237.815 91.8112 238.095 91.7004C238.378 91.5865 238.6 91.4296 238.76 91.2295C238.92 91.0264 239.001 90.7894 239.004 90.5186C239.001 90.2724 238.929 90.0693 238.787 89.9092C238.646 89.7461 238.447 89.6107 238.192 89.503C237.94 89.3922 237.644 89.2937 237.306 89.2075L236.23 88.9305C235.451 88.7305 234.836 88.4273 234.383 88.0211C233.934 87.6117 233.709 87.0685 233.709 86.3915C233.709 85.8344 233.86 85.3466 234.162 84.928C234.466 84.5095 234.88 84.1848 235.404 83.954C235.927 83.7201 236.519 83.6031 237.181 83.6031C237.852 83.6031 238.44 83.7201 238.944 83.954C239.452 84.1848 239.851 84.5064 240.14 84.9188C240.429 85.3281 240.579 85.799 240.588 86.3314H238.94ZM245.309 93.3254C244.598 93.3254 243.984 93.1777 243.467 92.8822C242.953 92.5837 242.558 92.1621 242.281 91.6173C242.004 91.0695 241.866 90.4247 241.866 89.683C241.866 88.9536 242.004 88.3135 242.281 87.7626C242.561 87.2086 242.952 86.7777 243.454 86.4699C243.955 86.1591 244.545 86.0037 245.222 86.0037C245.659 86.0037 246.071 86.0745 246.459 86.216C246.85 86.3545 247.194 86.57 247.493 86.8623C247.795 87.1547 248.032 87.5271 248.204 87.9795C248.376 88.4289 248.462 88.9644 248.462 89.5861V90.0985H242.65V88.9721H246.861C246.857 88.652 246.788 88.3673 246.653 88.118C246.517 87.8657 246.328 87.6671 246.085 87.5225C245.845 87.3778 245.565 87.3055 245.245 87.3055C244.903 87.3055 244.603 87.3886 244.345 87.5548C244.086 87.7179 243.884 87.9334 243.74 88.2011C243.598 88.4658 243.526 88.7566 243.523 89.0736V90.0569C243.523 90.4693 243.598 90.8233 243.749 91.1187C243.9 91.4111 244.111 91.6358 244.381 91.7927C244.652 91.9466 244.969 92.0236 245.332 92.0236C245.576 92.0236 245.796 91.9897 245.993 91.922C246.19 91.8512 246.36 91.7481 246.505 91.6127C246.65 91.4773 246.759 91.3095 246.833 91.1095L248.393 91.2849C248.295 91.6973 248.107 92.0574 247.83 92.3652C247.556 92.6699 247.205 92.9068 246.777 93.0761C246.35 93.2423 245.86 93.3254 245.309 93.3254ZM252.96 95.9937C252.36 95.9937 251.844 95.9122 251.414 95.7491C250.983 95.589 250.636 95.3736 250.375 95.1027C250.113 94.8319 249.932 94.5318 249.83 94.2025L251.335 93.8378C251.403 93.9763 251.501 94.1133 251.631 94.2487C251.76 94.3872 251.934 94.5011 252.152 94.5903C252.374 94.6827 252.652 94.7288 252.988 94.7288C253.462 94.7288 253.854 94.6134 254.165 94.3826C254.476 94.1548 254.631 93.7794 254.631 93.2562V91.9128H254.548C254.462 92.0851 254.336 92.2621 254.17 92.4437C254.006 92.6252 253.789 92.7776 253.519 92.9007C253.251 93.0238 252.914 93.0853 252.508 93.0853C251.963 93.0853 251.469 92.9576 251.026 92.7022C250.586 92.4437 250.235 92.059 249.973 91.5481C249.715 91.0341 249.585 90.3909 249.585 89.6184C249.585 88.8397 249.715 88.1827 249.973 87.6471C250.235 87.1085 250.587 86.7008 251.03 86.4238C251.474 86.1437 251.968 86.0037 252.512 86.0037C252.928 86.0037 253.269 86.0745 253.537 86.216C253.808 86.3545 254.023 86.5223 254.183 86.7192C254.343 86.9131 254.465 87.0962 254.548 87.2686H254.64V86.096H256.289V93.3023C256.289 93.9086 256.144 94.4103 255.855 94.8073C255.565 95.2043 255.17 95.5013 254.668 95.6983C254.166 95.8952 253.597 95.9937 252.96 95.9937ZM252.974 91.7743C253.328 91.7743 253.629 91.6881 253.879 91.5157C254.128 91.3434 254.317 91.0956 254.447 90.7725C254.576 90.4493 254.64 90.0616 254.64 89.6091C254.64 89.1629 254.576 88.772 254.447 88.4366C254.32 88.1011 254.133 87.841 253.883 87.6564C253.637 87.4686 253.334 87.3748 252.974 87.3748C252.602 87.3748 252.291 87.4717 252.041 87.6656C251.792 87.8595 251.604 88.1257 251.478 88.4643C251.352 88.7997 251.289 89.1813 251.289 89.6091C251.289 90.0431 251.352 90.4232 251.478 90.7494C251.607 91.0726 251.797 91.3249 252.046 91.5065C252.298 91.685 252.608 91.7743 252.974 91.7743ZM262.521 90.2047V86.096H264.192V93.1869H262.572V91.9266H262.498C262.338 92.3236 262.075 92.6483 261.708 92.9007C261.345 93.1531 260.897 93.2792 260.365 93.2792C259.9 93.2792 259.489 93.1761 259.132 92.9699C258.778 92.7607 258.501 92.4575 258.301 92.0605C258.101 91.6604 258.001 91.1772 258.001 90.6109V86.096H259.672V90.3524C259.672 90.8017 259.796 91.1587 260.042 91.4234C260.288 91.6881 260.611 91.8204 261.011 91.8204C261.257 91.8204 261.496 91.7604 261.727 91.6404C261.958 91.5204 262.147 91.3419 262.295 91.1049C262.445 90.8648 262.521 90.5648 262.521 90.2047ZM265.91 93.1869V86.096H267.531V87.2778H267.605C267.734 86.8685 267.956 86.553 268.269 86.3314C268.586 86.1068 268.948 85.9944 269.354 85.9944C269.447 85.9944 269.55 85.9991 269.664 86.0083C269.781 86.0144 269.878 86.0252 269.954 86.0406V87.5779C269.884 87.5533 269.771 87.5317 269.617 87.5133C269.467 87.4917 269.32 87.4809 269.179 87.4809C268.874 87.4809 268.6 87.5471 268.357 87.6795C268.117 87.8087 267.928 87.9888 267.789 88.2196C267.651 88.4504 267.582 88.7166 267.582 89.0182V93.1869H265.91ZM273.866 93.3254C273.173 93.3254 272.573 93.1731 272.065 92.8684C271.558 92.5637 271.164 92.1374 270.884 91.5896C270.607 91.0418 270.468 90.4016 270.468 89.6692C270.468 88.9367 270.607 88.295 270.884 87.7441C271.164 87.1932 271.558 86.7654 272.065 86.4607C272.573 86.156 273.173 86.0037 273.866 86.0037C274.558 86.0037 275.158 86.156 275.666 86.4607C276.174 86.7654 276.566 87.1932 276.843 87.7441C277.123 88.295 277.263 88.9367 277.263 89.6692C277.263 90.4016 277.123 91.0418 276.843 91.5896C276.566 92.1374 276.174 92.5637 275.666 92.8684C275.158 93.1731 274.558 93.3254 273.866 93.3254ZM273.875 91.9866C274.25 91.9866 274.564 91.8835 274.817 91.6773C275.069 91.468 275.257 91.188 275.38 90.8371C275.506 90.4863 275.569 90.0954 275.569 89.6645C275.569 89.2306 275.506 88.8382 275.38 88.4873C275.257 88.1334 275.069 87.8518 274.817 87.6425C274.564 87.4332 274.25 87.3286 273.875 87.3286C273.49 87.3286 273.17 87.4332 272.915 87.6425C272.662 87.8518 272.473 88.1334 272.347 88.4873C272.224 88.8382 272.162 89.2306 272.162 89.6645C272.162 90.0954 272.224 90.4863 272.347 90.8371C272.473 91.188 272.662 91.468 272.915 91.6773C273.17 91.8835 273.49 91.9866 273.875 91.9866ZM284.286 87.9703L282.763 88.1365C282.72 87.9826 282.644 87.838 282.537 87.7025C282.432 87.5671 282.29 87.4579 282.112 87.3748C281.933 87.2917 281.715 87.2501 281.456 87.2501C281.109 87.2501 280.816 87.3255 280.579 87.4763C280.345 87.6271 280.23 87.8226 280.233 88.0626C280.23 88.2688 280.305 88.4366 280.459 88.5658C280.616 88.6951 280.875 88.8013 281.235 88.8844L282.444 89.1429C283.115 89.2875 283.614 89.5168 283.94 89.8307C284.269 90.1447 284.436 90.5555 284.439 91.0633C284.436 91.5096 284.305 91.9035 284.046 92.2452C283.791 92.5837 283.435 92.8484 282.98 93.0392C282.524 93.23 282.001 93.3254 281.41 93.3254C280.542 93.3254 279.844 93.1438 279.314 92.7807C278.785 92.4144 278.47 91.9051 278.368 91.2526L279.998 91.0956C280.071 91.4157 280.228 91.6573 280.468 91.8204C280.709 91.9835 281.021 92.0651 281.406 92.0651C281.803 92.0651 282.121 91.9835 282.361 91.8204C282.604 91.6573 282.726 91.4557 282.726 91.2157C282.726 91.0126 282.647 90.8448 282.491 90.7125C282.337 90.5801 282.097 90.4786 281.77 90.4078L280.561 90.1539C279.881 90.0123 279.377 89.7738 279.051 89.4383C278.725 89.0998 278.563 88.672 278.566 88.155C278.563 87.7179 278.682 87.3394 278.922 87.0193C279.165 86.6961 279.502 86.4469 279.933 86.2714C280.367 86.0929 280.867 86.0037 281.433 86.0037C282.264 86.0037 282.918 86.1806 283.395 86.5346C283.875 86.8885 284.172 87.3671 284.286 87.9703ZM287.779 91.8943L287.719 92.4021C287.676 92.7899 287.599 93.1838 287.488 93.5839C287.38 93.9871 287.266 94.358 287.146 94.6965C287.026 95.035 286.929 95.3013 286.855 95.4952H285.729C285.772 95.3074 285.831 95.052 285.904 94.7288C285.981 94.4057 286.055 94.0425 286.126 93.6393C286.197 93.2362 286.244 92.8268 286.269 92.4113L286.301 91.8943H287.779ZM292.657 93.1869V83.7324H294.37V91.7512H298.534V93.1869H292.657ZM302.578 93.3116C302.021 93.3116 301.522 93.1684 301.082 92.8822C300.642 92.596 300.294 92.1805 300.039 91.6358C299.783 91.091 299.656 90.4293 299.656 89.6507C299.656 88.8628 299.785 88.198 300.044 87.6564C300.305 87.1116 300.657 86.7008 301.101 86.4238C301.544 86.1437 302.038 86.0037 302.583 86.0037C302.998 86.0037 303.34 86.0745 303.607 86.216C303.875 86.3545 304.088 86.5223 304.244 86.7192C304.401 86.9131 304.523 87.0962 304.609 87.2686H304.678V83.7324H306.354V93.1869H304.711V92.0697H304.609C304.523 92.2421 304.398 92.4252 304.235 92.6191C304.072 92.8099 303.857 92.973 303.589 93.1084C303.321 93.2438 302.984 93.3116 302.578 93.3116ZM303.044 91.9405C303.398 91.9405 303.7 91.8451 303.949 91.6542C304.198 91.4603 304.388 91.1911 304.517 90.8464C304.646 90.5017 304.711 90.1 304.711 89.6415C304.711 89.1829 304.646 88.7843 304.517 88.4458C304.391 88.1072 304.203 87.8441 303.954 87.6564C303.707 87.4686 303.404 87.3748 303.044 87.3748C302.672 87.3748 302.361 87.4717 302.112 87.6656C301.862 87.8595 301.675 88.1273 301.548 88.4689C301.422 88.8105 301.359 89.2014 301.359 89.6415C301.359 90.0846 301.422 90.4801 301.548 90.8279C301.678 91.1726 301.867 91.445 302.116 91.645C302.369 91.842 302.678 91.9405 303.044 91.9405ZM310.176 93.33C309.726 93.33 309.321 93.25 308.961 93.09C308.604 92.9269 308.321 92.6868 308.112 92.3698C307.906 92.0528 307.803 91.6619 307.803 91.1972C307.803 90.7971 307.877 90.4663 308.024 90.2047C308.172 89.9431 308.374 89.7338 308.629 89.5768C308.884 89.4199 309.172 89.3014 309.492 89.2214C309.815 89.1383 310.149 89.0782 310.494 89.0413C310.91 88.9982 311.247 88.9598 311.505 88.9259C311.764 88.889 311.951 88.8336 312.068 88.7597C312.188 88.6828 312.248 88.5643 312.248 88.4042V88.3765C312.248 88.0288 312.145 87.7595 311.939 87.5687C311.733 87.3778 311.436 87.2824 311.048 87.2824C310.639 87.2824 310.314 87.3717 310.074 87.5502C309.837 87.7287 309.677 87.9395 309.594 88.1827L308.033 87.9611C308.157 87.5302 308.36 87.1701 308.643 86.8808C308.926 86.5884 309.272 86.3699 309.682 86.2253C310.091 86.0775 310.543 86.0037 311.039 86.0037C311.38 86.0037 311.72 86.0437 312.059 86.1237C312.398 86.2037 312.707 86.3361 312.987 86.5207C313.267 86.7023 313.492 86.9501 313.661 87.264C313.833 87.5779 313.919 87.9703 313.919 88.4412V93.1869H312.313V92.2128H312.258C312.156 92.4098 312.013 92.5945 311.828 92.7668C311.647 92.9361 311.417 93.073 311.14 93.1777C310.866 93.2792 310.545 93.33 310.176 93.33ZM310.609 92.102C310.945 92.102 311.236 92.0359 311.482 91.9035C311.728 91.7681 311.917 91.5896 312.05 91.368C312.185 91.1464 312.253 90.9048 312.253 90.6432V89.8077C312.201 89.8507 312.111 89.8907 311.985 89.9277C311.862 89.9646 311.724 89.9969 311.57 90.0246C311.416 90.0523 311.263 90.0769 311.113 90.0985C310.962 90.12 310.831 90.1385 310.72 90.1539C310.471 90.1877 310.248 90.2431 310.051 90.3201C309.854 90.397 309.698 90.5047 309.585 90.6432C309.471 90.7786 309.414 90.9541 309.414 91.1695C309.414 91.4773 309.526 91.7096 309.751 91.8666C309.975 92.0236 310.262 92.102 310.609 92.102ZM316.629 93.2885C316.349 93.2885 316.109 93.19 315.909 92.993C315.709 92.796 315.611 92.556 315.614 92.2728C315.611 91.9959 315.709 91.7589 315.909 91.5619C316.109 91.3649 316.349 91.2665 316.629 91.2665C316.9 91.2665 317.136 91.3649 317.336 91.5619C317.539 91.7589 317.642 91.9959 317.645 92.2728C317.642 92.4606 317.593 92.6314 317.497 92.7853C317.405 92.9392 317.282 93.0623 317.128 93.1546C316.977 93.2438 316.811 93.2885 316.629 93.2885Z" fill="#0A0A0A"/>
</g>
</g>
<defs>
<clipPath id="clip0_41_2">
<rect width="332" height="97" fill="white"/>
</clipPath>
</defs>
</svg>
