<svg width="69" height="71" viewBox="0 0 69 71" fill="none" xmlns="http://www.w3.org/2000/svg">
<g clip-path="url(#clip0_690_6502)">
<path fill-rule="evenodd" clip-rule="evenodd" d="M30.352 0.491957C30.092 1.52596 26.592 9.97296 22.329 19.854C14.68 37.582 13.548 40.259 13.656 40.368C13.718 40.429 14.332 40.297 15.022 40.074C23.083 37.468 39.249 37.44 47.774 40.018C49.526 40.547 49.613 40.927 46.397 33.997C42.371 25.323 36.066 11.578 33.278 5.40095C30.629 -0.467046 30.603 -0.511043 30.352 0.491957ZM25.081 40.172C17.982 40.861 10.575 43.409 3.738 47.517C0.709999 49.336 0.564002 49.563 2.913 48.8C7.267 47.385 17.355 45.395 23.155 44.808C36.78 43.427 52.926 45.937 63.086 51.015C64.863 51.903 64.609 51.351 62.565 49.884C51.96 42.275 38.734 38.848 25.081 40.172ZM24.256 46.679C15.284 47.428 8.333 49.231 8.333 50.809C8.333 51.236 7.5 53.44 6.481 55.707C2.762 63.986 2.383 64.821 1.202 67.333C0.541 68.74 0 69.942 0 70.006C0 70.07 3.463 70.091 7.697 70.053L15.394 69.984L16.374 68.161C16.913 67.158 18.563 64.053 20.041 61.26C21.518 58.467 23.178 55.351 23.729 54.335L24.731 52.488L29.097 52.336C33.878 52.17 39.446 52.415 39.811 52.808C39.938 52.945 41.366 55.518 42.985 58.526C44.604 61.533 46.656 65.342 47.546 66.989L49.165 69.984L56.483 70.053C60.508 70.091 63.802 70.064 63.802 69.994C63.802 69.838 61.15 64.124 58.619 58.823C57.291 56.043 56.899 55.004 57.227 55.131C60.245 56.3 64.612 57.149 67.057 57.043L68.88 56.963L66.917 55.734C55.781 48.759 39.847 45.376 24.256 46.679Z" fill="black"/>
</g>
<defs>
<clipPath id="clip0_690_6502">
<rect width="68.88" height="70.0719" fill="white"/>
</clipPath>
</defs>
</svg>
