<svg width="332" height="97" viewBox="0 0 332 97" fill="none" xmlns="http://www.w3.org/2000/svg">
<g clip-path="url(#clip0_690_6501)">
<path fill-rule="evenodd" clip-rule="evenodd" d="M30.352 0.491957C30.092 1.52596 26.592 9.97296 22.329 19.854C14.68 37.582 13.548 40.259 13.656 40.368C13.718 40.429 14.332 40.297 15.022 40.074C23.083 37.468 39.249 37.44 47.774 40.018C49.526 40.547 49.613 40.927 46.397 33.997C42.371 25.323 36.066 11.578 33.278 5.40095C30.629 -0.467046 30.603 -0.511043 30.352 0.491957ZM72.604 17.402C71.04 17.883 71.019 17.929 71.464 19.896C72.283 23.516 72.435 28.113 72.365 47.14C72.296 65.8 72.3 65.968 72.828 66.496C73.428 67.095 75.056 67.397 76.35 67.148C77.921 66.845 77.928 66.826 77.416 63.974C76.732 60.161 76.732 25.244 77.416 20.635C77.982 16.823 76.884 16.085 72.604 17.402ZM184.896 22.202C178.432 23.036 174.557 27.078 174.793 32.744C174.957 36.682 176.817 39.26 182.663 43.651C187.371 47.187 188.549 48.818 188.536 51.785C188.512 57.053 181.252 59.927 175.492 56.948C174.642 56.509 174.479 56.767 174.479 58.559C174.479 60.641 175.872 61.439 179.948 61.693C187.711 62.176 193.01 57.9 193.075 51.099C193.115 46.924 191.669 44.715 186.158 40.531C180.004 35.86 178.408 33.244 179.676 29.91C180.944 26.574 186.426 24.875 190.323 26.61C191.996 27.355 192.177 27.203 192.183 25.047C192.19 22.511 189.785 21.572 184.896 22.202ZM140.313 27.122C138.866 27.418 138.536 27.788 138.832 28.787C138.968 29.245 139.152 30.991 139.24 32.668L139.401 35.717L137.213 35.793L135.026 35.869L134.786 36.84C134.328 38.694 134.789 39.125 137.234 39.125H139.323V50.421C139.323 63.46 139.098 62.444 141.975 62.412C144.358 62.385 144.407 62.316 144.046 59.5C143.875 58.162 143.75 53.384 143.75 48.156V39.125H146.713C150.15 39.125 150.331 39.021 150.21 37.127L150.13 35.869L146.902 35.796L143.674 35.722L143.851 32.931C143.948 31.396 144.097 29.543 144.18 28.813C144.299 27.776 144.248 27.453 143.944 27.336C143.178 27.042 141.258 26.929 140.313 27.122ZM240.364 36.008C238.182 37.098 237.827 37.204 237.349 36.905C234.624 35.201 228.688 35.138 225.358 36.777C220.15 39.341 219.022 46.185 223.166 50.076L224.43 51.263L223.673 51.769C221.551 53.189 221.661 56.63 223.882 58.324L224.774 59.005L222.521 60.171C219.092 61.946 217.965 64.338 219.125 67.377C221.957 74.793 241.48 74.721 243.708 67.286C245.053 62.796 242.409 60.52 233.249 58.286C227.747 56.945 226.302 56.152 226.302 54.478C226.302 52.679 226.859 52.34 229.747 52.383C238.096 52.508 243.709 46.427 240.408 40.833C239.802 39.806 239.751 39.872 241.601 39.269C243.532 38.638 244.597 36.169 243.437 35.01C243.05 34.622 243.3 34.541 240.364 36.008ZM92.111 35.763C81.081 37.376 78.325 55.636 88.37 60.554C94.324 63.47 104.969 61.882 104.944 58.083C104.936 56.987 104.595 56.732 103.732 57.179C95.569 61.4 87.001 57.867 86.982 50.272L86.979 49.049L94.596 48.97C104.508 48.866 105.093 48.595 104.877 44.203C104.569 37.978 99.569 34.672 92.111 35.763ZM109.032 35.787C108.502 35.98 108.345 36.174 108.464 36.483C109.434 38.982 109.484 39.648 109.551 50.822C109.602 59.484 109.689 61.914 109.951 62.081C110.318 62.314 113.549 62.382 114.106 62.169C114.388 62.061 114.436 60.331 114.365 52.909L114.276 43.782L114.971 42.362C117 38.215 123.732 37.561 126.214 41.27C127.516 43.216 127.642 44.352 127.573 53.518C127.507 62.362 127.486 62.222 128.906 62.317C132.353 62.546 132.939 62.207 132.526 60.218C132.363 59.43 132.154 55.036 132.061 50.453L131.892 42.119L131.166 40.557C128.636 35.112 119.875 33.673 115.164 37.929L114.117 38.875L113.8 37.503C113.342 35.516 111.547 34.871 109.032 35.787ZM159.684 35.756C147.713 37.868 146.546 57.452 158.171 61.144C164.029 63.004 172.135 60.969 172.135 57.638C172.135 56.277 172.101 56.271 169.809 57.262C162.115 60.589 155.405 57.768 155.002 51.039L154.881 49.02L162.01 49.015C171.498 49.007 172.18 48.732 172.357 44.835C172.645 38.488 167.024 34.461 159.684 35.756ZM205.208 35.772C195.157 37.402 191.836 54.125 200.464 59.661C205.876 63.134 217.465 61.977 217.444 57.966C217.436 56.562 217.138 56.435 215.581 57.171C208.043 60.737 200.921 57.804 200.342 50.894L200.185 49.02L207.319 49.019C217.298 49.017 217.838 48.785 217.838 44.51C217.838 38.174 212.628 34.569 205.208 35.772ZM247.176 35.724C245.901 36.046 245.743 36.301 246.1 37.466C246.291 38.089 246.482 41.705 246.601 46.937C246.827 56.876 246.883 57.145 249.199 59.447C252.5 62.728 258.586 62.648 262.007 59.279L263.209 58.095L263.525 59.349C263.971 61.119 264.153 61.26 265.997 61.26C268.32 61.26 268.578 60.997 268.167 59.046C267.933 57.932 267.838 54.4 267.838 46.739C267.838 34.397 268.15 35.632 265.047 35.683C262.92 35.718 262.122 36.07 262.354 36.868C263.543 40.959 263.741 52.822 262.656 54.953C260.371 59.441 253.755 59.633 251.733 55.27C251.077 53.855 250.787 43.87 251.265 39.125C251.476 37.028 251.467 36.316 251.226 36.074C250.815 35.662 248.287 35.443 247.176 35.724ZM298.567 35.737C293.765 36.41 290.099 39.348 288.242 44.011C287.367 46.208 287.366 51.831 288.241 54.027C292.892 65.705 311.784 63.863 314.04 51.512C315.849 41.607 308.699 34.317 298.567 35.737ZM322.883 36.147C317.374 37.843 315.684 44.014 319.703 47.756C320.11 48.134 321.617 49.2 323.053 50.123C326.556 52.374 327.174 53.124 327.024 54.935C326.736 58.413 322.494 59.652 318.166 57.522C316.676 56.789 316.666 56.797 316.666 58.681C316.666 64.206 329.453 62.214 331.135 56.427C332.302 52.413 330.988 50.113 325.634 46.805C322.107 44.625 321.187 43.032 322.259 40.96C323.246 39.051 326.671 38.355 329.104 39.568C330.197 40.113 330.218 40.114 330.485 39.615C331.011 38.632 330.679 36.443 329.948 36.075C329.058 35.627 324.418 35.674 322.883 36.147ZM272.439 36.228C272.157 36.406 272.206 36.786 272.696 38.242C273.287 39.996 273.301 40.263 273.31 50.322C273.321 62.12 273.138 61.26 275.634 61.26C278.206 61.26 278.199 61.273 277.899 57.316C276.959 44.955 278.567 40.456 283.825 40.728L285.547 40.817L285.699 39.255C286.073 35.415 282.778 35.088 279.069 38.596L277.677 39.912L277.531 38.499C277.289 36.145 277.128 35.999 274.795 36.003C273.69 36.006 272.63 36.107 272.439 36.228ZM233.002 38.646C237.002 39.653 238.483 44.969 235.576 47.885C232.179 51.292 225.955 49.943 224.992 45.592C223.946 40.859 227.961 37.377 233.002 38.646ZM97.786 39.22C99.936 40.23 100.781 41.663 100.781 44.297C100.781 46.271 101.233 46.156 93.474 46.156H86.992L87.14 45.309C88.105 39.783 93.01 36.977 97.786 39.22ZM165.099 39.145C167.667 40.309 169.379 44.38 167.916 45.843C167.311 46.448 154.948 46.272 154.948 45.658C154.948 40.669 160.544 37.078 165.099 39.145ZM210.672 39.145C213.087 40.24 214.602 43.377 213.775 45.57L213.554 46.156H206.902H200.25L200.408 45.44C201.703 39.567 205.912 36.985 210.672 39.145ZM303.988 39.279C310.826 41.609 311.745 53.795 305.36 57.474C299.723 60.723 292.92 57.108 292.168 50.464C291.244 42.307 296.971 36.888 303.988 39.279ZM25.081 40.172C17.982 40.861 10.575 43.409 3.738 47.517C0.709999 49.336 0.564002 49.563 2.913 48.8C7.267 47.385 17.355 45.395 23.155 44.808C36.78 43.427 52.926 45.937 63.086 51.015C64.863 51.903 64.609 51.351 62.565 49.884C51.96 42.275 38.734 38.848 25.081 40.172ZM24.256 46.679C15.284 47.428 8.333 49.231 8.333 50.809C8.333 51.236 7.5 53.44 6.481 55.707C2.762 63.986 2.383 64.821 1.202 67.333C0.541 68.74 0 69.942 0 70.006C0 70.07 3.463 70.091 7.697 70.053L15.394 69.984L16.374 68.161C16.913 67.158 18.563 64.053 20.041 61.26C21.518 58.467 23.178 55.351 23.729 54.335L24.731 52.488L29.097 52.336C33.878 52.17 39.446 52.415 39.811 52.808C39.938 52.945 41.366 55.518 42.985 58.526C44.604 61.533 46.656 65.342 47.546 66.989L49.165 69.984L56.483 70.053C60.508 70.091 63.802 70.064 63.802 69.994C63.802 69.838 61.15 64.124 58.619 58.823C57.291 56.043 56.899 55.004 57.227 55.131C60.245 56.3 64.612 57.149 67.057 57.043L68.88 56.963L66.917 55.734C55.781 48.759 39.847 45.376 24.256 46.679ZM231.788 61.256C239.216 63.107 240.97 64.487 239.324 67.187C236.935 71.104 225.306 70.514 223.342 66.376C222.346 64.276 223.392 61.934 225.911 60.627C226.981 60.072 227.073 60.082 231.788 61.256Z" fill="black"/>
<path d="M14.5155 93.187V83.7325H20.6647V85.1682H16.2282V87.735H20.3461V89.1707H16.2282V91.7513H20.7016V93.187H14.5155ZM25.9298 86.0961V87.3887H21.738V86.0961H25.9298ZM22.786 93.187V85.4267C22.786 84.9497 22.8844 84.5527 23.0814 84.2357C23.2815 83.9187 23.5492 83.6817 23.8847 83.5247C24.2201 83.3678 24.5925 83.2893 25.0019 83.2893C25.2912 83.2893 25.5481 83.3124 25.7728 83.3585C25.9975 83.4047 26.1637 83.4462 26.2714 83.4832L25.939 84.7758C25.8682 84.7542 25.779 84.7327 25.6713 84.7112C25.5635 84.6865 25.4435 84.6742 25.3112 84.6742C25.0003 84.6742 24.7803 84.7496 24.651 84.9004C24.5248 85.0482 24.4617 85.2605 24.4617 85.5375V93.187H22.786ZM27.2385 93.187V86.0961H28.9097V93.187H27.2385ZM28.0787 85.0897C27.8141 85.0897 27.5863 85.002 27.3955 84.8266C27.2047 84.6481 27.1093 84.4342 27.1093 84.1849C27.1093 83.9325 27.2047 83.7186 27.3955 83.5432C27.5863 83.3647 27.8141 83.2754 28.0787 83.2754C28.3465 83.2754 28.5742 83.3647 28.762 83.5432C28.9528 83.7186 29.0482 83.9325 29.0482 84.1849C29.0482 84.4342 28.9528 84.6481 28.762 84.8266C28.5742 85.002 28.3465 85.0897 28.0787 85.0897ZM33.7212 93.3255C33.0134 93.3255 32.4055 93.1701 31.8977 92.8592C31.393 92.5484 31.0037 92.1191 30.7298 91.5712C30.4589 91.0203 30.3235 90.3863 30.3235 89.6693C30.3235 88.9491 30.462 88.3136 30.739 87.7627C31.016 87.2087 31.4068 86.7778 31.9116 86.47C32.4194 86.1592 33.0195 86.0038 33.712 86.0038C34.2875 86.0038 34.7969 86.11 35.2401 86.3223C35.6863 86.5316 36.0418 86.8286 36.3065 87.2133C36.5711 87.5949 36.7219 88.0412 36.7589 88.5521H35.1616C35.0969 88.2104 34.9431 87.9258 34.6999 87.698C34.4599 87.4672 34.1383 87.3518 33.7351 87.3518C33.3935 87.3518 33.0934 87.4441 32.8349 87.6288C32.5763 87.8104 32.3748 88.072 32.2301 88.4136C32.0885 88.7552 32.0178 89.1645 32.0178 89.6416C32.0178 90.1247 32.0885 90.5402 32.2301 90.888C32.3717 91.2327 32.5702 91.4989 32.8256 91.6867C33.0842 91.8713 33.3873 91.9636 33.7351 91.9636C33.9813 91.9636 34.2013 91.9175 34.3952 91.8252C34.5922 91.7297 34.7569 91.5928 34.8892 91.4143C35.0215 91.2358 35.1123 91.0188 35.1616 90.7634H36.7589C36.7189 91.265 36.5711 91.7097 36.3157 92.0975C36.0603 92.4822 35.7125 92.7838 35.2724 93.0024C34.8323 93.2178 34.3152 93.3255 33.7212 93.3255ZM38.1311 93.187V86.0961H39.8023V93.187H38.1311ZM38.9713 85.0897C38.7066 85.0897 38.4789 85.002 38.2881 84.8266C38.0973 84.6481 38.0019 84.4342 38.0019 84.1849C38.0019 83.9325 38.0973 83.7186 38.2881 83.5432C38.4789 83.3647 38.7066 83.2754 38.9713 83.2754C39.2391 83.2754 39.4668 83.3647 39.6546 83.5432C39.8454 83.7186 39.9408 83.9325 39.9408 84.1849C39.9408 84.4342 39.8454 84.6481 39.6546 84.8266C39.4668 85.002 39.2391 85.0897 38.9713 85.0897ZM44.66 93.3255C43.949 93.3255 43.335 93.1778 42.818 92.8823C42.304 92.5838 41.9086 92.1622 41.6316 91.6174C41.3546 91.0696 41.2161 90.4248 41.2161 89.6831C41.2161 88.9537 41.3546 88.3136 41.6316 87.7627C41.9116 87.2087 42.3025 86.7778 42.8042 86.47C43.3058 86.1592 43.8952 86.0038 44.5723 86.0038C45.0093 86.0038 45.4217 86.0746 45.8095 86.2161C46.2003 86.3546 46.545 86.5701 46.8436 86.8624C47.1452 87.1548 47.3822 87.5272 47.5545 87.9796C47.7269 88.429 47.813 88.9645 47.813 89.5862V90.0986H42.0009V88.9722H46.2111C46.208 88.6521 46.1388 88.3674 46.0034 88.1181C45.868 87.8658 45.6787 87.6672 45.4355 87.5226C45.1955 87.3779 44.9154 87.3056 44.5953 87.3056C44.2537 87.3056 43.9537 87.3887 43.6951 87.5549C43.4366 87.718 43.235 87.9335 43.0904 88.2012C42.9488 88.4659 42.8765 88.7567 42.8734 89.0737V90.057C42.8734 90.4694 42.9488 90.8234 43.0996 91.1188C43.2504 91.4112 43.4612 91.6359 43.7321 91.7928C44.0029 91.9467 44.3199 92.0237 44.6831 92.0237C44.9262 92.0237 45.1462 91.9898 45.3432 91.9221C45.5402 91.8513 45.711 91.7482 45.8556 91.6128C46.0003 91.4774 46.1096 91.3096 46.1834 91.1096L47.7438 91.285C47.6453 91.6974 47.4576 92.0575 47.1806 92.3653C46.9067 92.67 46.5558 92.9069 46.128 93.0762C45.7002 93.2424 45.2109 93.3255 44.66 93.3255ZM50.898 89.0322V93.187H49.2268V86.0961H50.8241V87.301H50.9072C51.0703 86.904 51.3304 86.5885 51.6874 86.3546C52.0475 86.1207 52.4922 86.0038 53.0216 86.0038C53.5109 86.0038 53.9372 86.1084 54.3003 86.3177C54.6666 86.527 54.9497 86.8301 55.1498 87.2271C55.3529 87.6242 55.4529 88.1058 55.4498 88.6721V93.187H53.7787V88.9306C53.7787 88.4567 53.6556 88.0858 53.4094 87.818C53.1662 87.5503 52.8292 87.4164 52.3983 87.4164C52.106 87.4164 51.8459 87.481 51.6182 87.6103C51.3935 87.7365 51.2165 87.9196 51.0873 88.1597C50.9611 88.3997 50.898 88.6906 50.898 89.0322ZM60.6895 86.0961V87.3887H56.6132V86.0961H60.6895ZM57.6196 84.3972H59.2907V91.0542C59.2907 91.2789 59.3246 91.4512 59.3923 91.5712C59.4631 91.6882 59.5554 91.7682 59.6693 91.8113C59.7832 91.8544 59.9094 91.8759 60.0479 91.8759C60.1525 91.8759 60.2479 91.8682 60.3341 91.8528C60.4233 91.8375 60.491 91.8236 60.5372 91.8113L60.8188 93.1178C60.7296 93.1485 60.6018 93.1824 60.4356 93.2193C60.2725 93.2563 60.0725 93.2778 59.8355 93.284C59.4169 93.2963 59.0399 93.2332 58.7045 93.0947C58.369 92.9531 58.1028 92.7346 57.9058 92.4391C57.7119 92.1437 57.6165 91.7744 57.6196 91.3312V84.3972ZM65.1502 93.3255C64.4393 93.3255 63.8253 93.1778 63.3082 92.8823C62.7943 92.5838 62.3988 92.1622 62.1218 91.6174C61.8448 91.0696 61.7063 90.4248 61.7063 89.6831C61.7063 88.9537 61.8448 88.3136 62.1218 87.7627C62.4019 87.2087 62.7927 86.7778 63.2944 86.47C63.796 86.1592 64.3854 86.0038 65.0625 86.0038C65.4995 86.0038 65.9119 86.0746 66.2997 86.2161C66.6906 86.3546 67.0353 86.5701 67.3338 86.8624C67.6354 87.1548 67.8724 87.5272 68.0447 87.9796C68.2171 88.429 68.3033 88.9645 68.3033 89.5862V90.0986H62.4911V88.9722H66.7013C66.6983 88.6521 66.629 88.3674 66.4936 88.1181C66.3582 87.8658 66.1689 87.6672 65.9258 87.5226C65.6857 87.3779 65.4057 87.3056 65.0856 87.3056C64.744 87.3056 64.4439 87.3887 64.1854 87.5549C63.9268 87.718 63.7253 87.9335 63.5806 88.2012C63.439 88.4659 63.3667 88.7567 63.3636 89.0737V90.057C63.3636 90.4694 63.439 90.8234 63.5898 91.1188C63.7406 91.4112 63.9515 91.6359 64.2223 91.7928C64.4931 91.9467 64.8101 92.0237 65.1733 92.0237C65.4164 92.0237 65.6365 91.9898 65.8335 91.9221C66.0304 91.8513 66.2012 91.7482 66.3459 91.6128C66.4905 91.4774 66.5998 91.3096 66.6737 91.1096L68.234 91.285C68.1355 91.6974 67.9478 92.0575 67.6708 92.3653C67.3969 92.67 67.046 92.9069 66.6183 93.0762C66.1905 93.2424 65.7011 93.3255 65.1502 93.3255ZM76.0809 93.3255C75.3699 93.3255 74.7559 93.1778 74.2389 92.8823C73.7249 92.5838 73.3295 92.1622 73.0525 91.6174C72.7755 91.0696 72.637 90.4248 72.637 89.6831C72.637 88.9537 72.7755 88.3136 73.0525 87.7627C73.3325 87.2087 73.7234 86.7778 74.2251 86.47C74.7267 86.1592 75.3161 86.0038 75.9932 86.0038C76.4302 86.0038 76.8426 86.0746 77.2304 86.2161C77.6212 86.3546 77.9659 86.5701 78.2645 86.8624C78.5661 87.1548 78.8031 87.5272 78.9754 87.9796C79.1478 88.429 79.2339 88.9645 79.2339 89.5862V90.0986H73.4218V88.9722H77.632C77.6289 88.6521 77.5597 88.3674 77.4243 88.1181C77.2889 87.8658 77.0996 87.6672 76.8564 87.5226C76.6164 87.3779 76.3363 87.3056 76.0162 87.3056C75.6746 87.3056 75.3746 87.3887 75.116 87.5549C74.8575 87.718 74.6559 87.9335 74.5113 88.2012C74.3697 88.4659 74.2974 88.7567 74.2943 89.0737V90.057C74.2943 90.4694 74.3697 90.8234 74.5205 91.1188C74.6713 91.4112 74.8821 91.6359 75.153 91.7928C75.4238 91.9467 75.7408 92.0237 76.104 92.0237C76.3471 92.0237 76.5671 91.9898 76.7641 91.9221C76.9611 91.8513 77.1319 91.7482 77.2765 91.6128C77.4212 91.4774 77.5305 91.3096 77.6043 91.1096L79.1647 91.285C79.0662 91.6974 78.8785 92.0575 78.6015 92.3653C78.3276 92.67 77.9767 92.9069 77.5489 93.0762C77.1211 93.2424 76.6318 93.3255 76.0809 93.3255ZM92.0389 86.9225H90.3123C90.2631 86.6393 90.1723 86.3885 90.04 86.17C89.9076 85.9484 89.743 85.7606 89.546 85.6068C89.349 85.4529 89.1243 85.3375 88.872 85.2605C88.6227 85.1805 88.3534 85.1405 88.0641 85.1405C87.5501 85.1405 87.0946 85.2698 86.6976 85.5283C86.3006 85.7837 85.9898 86.1592 85.7651 86.6547C85.5404 87.1471 85.4281 87.7488 85.4281 88.4597C85.4281 89.183 85.5404 89.7924 85.7651 90.2879C85.9928 90.7803 86.3037 91.1527 86.6976 91.4051C87.0946 91.6543 87.5486 91.779 88.0595 91.779C88.3426 91.779 88.6073 91.7421 88.8535 91.6682C89.1028 91.5912 89.3259 91.4789 89.5229 91.3312C89.723 91.1835 89.8907 91.0019 90.0261 90.7864C90.1646 90.571 90.26 90.3248 90.3123 90.0478L92.0389 90.057C91.9743 90.5064 91.8342 90.928 91.6188 91.322C91.4064 91.7159 91.1279 92.0637 90.7832 92.3653C90.4385 92.6638 90.0353 92.8977 89.5737 93.067C89.112 93.2332 88.5996 93.3163 88.0364 93.3163C87.2054 93.3163 86.4637 93.1239 85.8113 92.7392C85.1588 92.3545 84.6448 91.799 84.2694 91.0727C83.8939 90.3463 83.7061 89.4754 83.7061 88.4597C83.7061 87.441 83.8954 86.5701 84.274 85.8468C84.6525 85.1205 85.168 84.565 85.8205 84.1803C86.473 83.7956 87.2116 83.6032 88.0364 83.6032C88.5627 83.6032 89.052 83.6771 89.5044 83.8248C89.9569 83.9725 90.36 84.1895 90.714 84.4757C91.0679 84.7589 91.3587 85.1066 91.5865 85.519C91.8173 85.9284 91.9681 86.3962 92.0389 86.9225ZM96.6265 93.3255C95.934 93.3255 95.3339 93.1732 94.8261 92.8685C94.3183 92.5638 93.9243 92.1375 93.6443 91.5897C93.3673 91.0419 93.2288 90.4017 93.2288 89.6693C93.2288 88.9368 93.3673 88.2951 93.6443 87.7442C93.9243 87.1933 94.3183 86.7655 94.8261 86.4608C95.3339 86.1561 95.934 86.0038 96.6265 86.0038C97.319 86.0038 97.9191 86.1561 98.4269 86.4608C98.9347 86.7655 99.3271 87.1933 99.6041 87.7442C99.8842 88.2951 100.024 88.9368 100.024 89.6693C100.024 90.4017 99.8842 91.0419 99.6041 91.5897C99.3271 92.1375 98.9347 92.5638 98.4269 92.8685C97.9191 93.1732 97.319 93.3255 96.6265 93.3255ZM96.6357 91.9867C97.0112 91.9867 97.3251 91.8836 97.5775 91.6774C97.8299 91.4681 98.0176 91.1881 98.1407 90.8372C98.2669 90.4864 98.33 90.0955 98.33 89.6646C98.33 89.2307 98.2669 88.8383 98.1407 88.4874C98.0176 88.1335 97.8299 87.8519 97.5775 87.6426C97.3251 87.4333 97.0112 87.3287 96.6357 87.3287C96.251 87.3287 95.931 87.4333 95.6755 87.6426C95.4231 87.8519 95.2339 88.1335 95.1077 88.4874C94.9846 88.8383 94.923 89.2307 94.923 89.6646C94.923 90.0955 94.9846 90.4864 95.1077 90.8372C95.2339 91.1881 95.4231 91.4681 95.6755 91.6774C95.931 91.8836 96.251 91.9867 96.6357 91.9867ZM103.114 89.0322V93.187H101.443V86.0961H103.04V87.301H103.123C103.286 86.904 103.546 86.5885 103.903 86.3546C104.263 86.1207 104.708 86.0038 105.237 86.0038C105.727 86.0038 106.153 86.1084 106.516 86.3177C106.882 86.527 107.166 86.8301 107.366 87.2271C107.569 87.6242 107.669 88.1058 107.666 88.6721V93.187H105.994V88.9306C105.994 88.4567 105.871 88.0858 105.625 87.818C105.382 87.5503 105.045 87.4164 104.614 87.4164C104.322 87.4164 104.062 87.481 103.834 87.6103C103.609 87.7365 103.432 87.9196 103.303 88.1597C103.177 88.3997 103.114 88.6906 103.114 89.0322ZM112.956 86.0961V87.3887H108.764V86.0961H112.956ZM109.812 93.187V85.4267C109.812 84.9497 109.911 84.5527 110.108 84.2357C110.308 83.9187 110.576 83.6817 110.911 83.5247C111.247 83.3678 111.619 83.2893 112.028 83.2893C112.318 83.2893 112.575 83.3124 112.799 83.3585C113.024 83.4047 113.19 83.4462 113.298 83.4832L112.965 84.7758C112.895 84.7542 112.805 84.7327 112.698 84.7112C112.59 84.6865 112.47 84.6742 112.338 84.6742C112.027 84.6742 111.807 84.7496 111.677 84.9004C111.551 85.0482 111.488 85.2605 111.488 85.5375V93.187H109.812ZM114.265 93.187V86.0961H115.936V93.187H114.265ZM115.105 85.0897C114.84 85.0897 114.613 85.002 114.422 84.8266C114.231 84.6481 114.136 84.4342 114.136 84.1849C114.136 83.9325 114.231 83.7186 114.422 83.5432C114.613 83.3647 114.84 83.2754 115.105 83.2754C115.373 83.2754 115.601 83.3647 115.788 83.5432C115.979 83.7186 116.075 83.9325 116.075 84.1849C116.075 84.4342 115.979 84.6481 115.788 84.8266C115.601 85.002 115.373 85.0897 115.105 85.0897ZM119.695 93.3301C119.246 93.3301 118.841 93.2501 118.481 93.0901C118.124 92.927 117.841 92.6869 117.631 92.3699C117.425 92.0529 117.322 91.662 117.322 91.1973C117.322 90.7972 117.396 90.4664 117.544 90.2048C117.691 89.9432 117.893 89.7339 118.149 89.5769C118.404 89.42 118.692 89.3015 119.012 89.2215C119.335 89.1384 119.669 89.0783 120.014 89.0414C120.429 88.9983 120.766 88.9599 121.025 88.926C121.283 88.8891 121.471 88.8337 121.588 88.7598C121.708 88.6829 121.768 88.5644 121.768 88.4043V88.3766C121.768 88.0289 121.665 87.7596 121.459 87.5688C121.252 87.3779 120.955 87.2825 120.568 87.2825C120.158 87.2825 119.834 87.3718 119.593 87.5503C119.357 87.7288 119.196 87.9396 119.113 88.1828L117.553 87.9612C117.676 87.5303 117.879 87.1702 118.162 86.8809C118.446 86.5885 118.792 86.37 119.201 86.2254C119.61 86.0776 120.063 86.0038 120.558 86.0038C120.9 86.0038 121.24 86.0438 121.579 86.1238C121.917 86.2038 122.226 86.3362 122.506 86.5208C122.787 86.7024 123.011 86.9502 123.18 87.2641C123.353 87.578 123.439 87.9704 123.439 88.4413V93.187H121.832V92.2129H121.777C121.676 92.4099 121.532 92.5946 121.348 92.7669C121.166 92.9362 120.937 93.0731 120.66 93.1778C120.386 93.2793 120.064 93.3301 119.695 93.3301ZM120.129 92.1021C120.464 92.1021 120.755 92.036 121.002 91.9036C121.248 91.7682 121.437 91.5897 121.569 91.3681C121.705 91.1465 121.772 90.9049 121.772 90.6433V89.8078C121.72 89.8508 121.631 89.8908 121.505 89.9278C121.382 89.9647 121.243 89.997 121.089 90.0247C120.935 90.0524 120.783 90.077 120.632 90.0986C120.481 90.1201 120.351 90.1386 120.24 90.154C119.991 90.1878 119.767 90.2432 119.57 90.3202C119.373 90.3971 119.218 90.5048 119.104 90.6433C118.99 90.7787 118.933 90.9542 118.933 91.1696C118.933 91.4774 119.046 91.7097 119.27 91.8667C119.495 92.0237 119.781 92.1021 120.129 92.1021ZM119.991 85.1636L121.025 83.0538H122.659L121.242 85.1636H119.991ZM131.199 86.0961L128.674 93.187H126.828L124.302 86.0961H126.084L127.714 91.3635H127.788L129.422 86.0961H131.199ZM135.254 93.3255C134.543 93.3255 133.929 93.1778 133.412 92.8823C132.898 92.5838 132.502 92.1622 132.225 91.6174C131.948 91.0696 131.81 90.4248 131.81 89.6831C131.81 88.9537 131.948 88.3136 132.225 87.7627C132.505 87.2087 132.896 86.7778 133.398 86.47C133.9 86.1592 134.489 86.0038 135.166 86.0038C135.603 86.0038 136.015 86.0746 136.403 86.2161C136.794 86.3546 137.139 86.5701 137.437 86.8624C137.739 87.1548 137.976 87.5272 138.148 87.9796C138.321 88.429 138.407 88.9645 138.407 89.5862V90.0986H132.595V88.9722H136.805C136.802 88.6521 136.733 88.3674 136.597 88.1181C136.462 87.8658 136.272 87.6672 136.029 87.5226C135.789 87.3779 135.509 87.3056 135.189 87.3056C134.847 87.3056 134.547 87.3887 134.289 87.5549C134.03 87.718 133.829 87.9335 133.684 88.2012C133.543 88.4659 133.47 88.7567 133.467 89.0737V90.057C133.467 90.4694 133.543 90.8234 133.693 91.1188C133.844 91.4112 134.055 91.6359 134.326 91.7928C134.597 91.9467 134.914 92.0237 135.277 92.0237C135.52 92.0237 135.74 91.9898 135.937 91.9221C136.134 91.8513 136.305 91.7482 136.449 91.6128C136.594 91.4774 136.703 91.3096 136.777 91.1096L138.338 91.285C138.239 91.6974 138.051 92.0575 137.774 92.3653C137.5 92.67 137.15 92.9069 136.722 93.0762C136.294 93.2424 135.805 93.3255 135.254 93.3255ZM141.492 83.7325V93.187H139.821V83.7325H141.492ZM145.172 91.8944L145.112 92.4022C145.069 92.79 144.992 93.1839 144.881 93.584C144.774 93.9872 144.66 94.3581 144.54 94.6966C144.42 95.0351 144.323 95.3014 144.249 95.4953H143.123C143.166 95.3075 143.224 95.0521 143.298 94.7289C143.375 94.4058 143.449 94.0426 143.52 93.6394C143.59 93.2363 143.638 92.8269 143.663 92.4114L143.695 91.8944H145.172ZM150.051 83.7325H152.147L154.953 90.5833H155.064L157.871 83.7325H159.967V93.187H158.323V86.6916H158.236L155.623 93.1593H154.395L151.782 86.6778H151.694V93.187H150.051V83.7325ZM164.897 93.3255C164.186 93.3255 163.572 93.1778 163.055 92.8823C162.541 92.5838 162.146 92.1622 161.869 91.6174C161.592 91.0696 161.453 90.4248 161.453 89.6831C161.453 88.9537 161.592 88.3136 161.869 87.7627C162.149 87.2087 162.54 86.7778 163.041 86.47C163.543 86.1592 164.132 86.0038 164.81 86.0038C165.247 86.0038 165.659 86.0746 166.047 86.2161C166.438 86.3546 166.782 86.5701 167.081 86.8624C167.382 87.1548 167.619 87.5272 167.792 87.9796C167.964 88.429 168.05 88.9645 168.05 89.5862V90.0986H162.238V88.9722H166.448C166.445 88.6521 166.376 88.3674 166.241 88.1181C166.105 87.8658 165.916 87.6672 165.673 87.5226C165.433 87.3779 165.153 87.3056 164.833 87.3056C164.491 87.3056 164.191 87.3887 163.932 87.5549C163.674 87.718 163.472 87.9335 163.328 88.2012C163.186 88.4659 163.114 88.7567 163.111 89.0737V90.057C163.111 90.4694 163.186 90.8234 163.337 91.1188C163.488 91.4112 163.699 91.6359 163.969 91.7928C164.24 91.9467 164.557 92.0237 164.92 92.0237C165.164 92.0237 165.384 91.9898 165.581 91.9221C165.777 91.8513 165.948 91.7482 166.093 91.6128C166.238 91.4774 166.347 91.3096 166.421 91.1096L167.981 91.285C167.883 91.6974 167.695 92.0575 167.418 92.3653C167.144 92.67 166.793 92.9069 166.365 93.0762C165.938 93.2424 165.448 93.3255 164.897 93.3255ZM172.096 93.3117C171.538 93.3117 171.04 93.1685 170.6 92.8823C170.16 92.5961 169.812 92.1806 169.556 91.6359C169.301 91.0911 169.173 90.4294 169.173 89.6508C169.173 88.8629 169.303 88.1981 169.561 87.6565C169.823 87.1117 170.175 86.7009 170.618 86.4239C171.061 86.1438 171.555 86.0038 172.1 86.0038C172.516 86.0038 172.857 86.0746 173.125 86.2161C173.393 86.3546 173.605 86.5224 173.762 86.7193C173.919 86.9132 174.041 87.0963 174.127 87.2687H174.196V83.7325H175.872V93.187H174.228V92.0698H174.127C174.041 92.2422 173.916 92.4253 173.753 92.6192C173.59 92.81 173.374 92.9731 173.107 93.1085C172.839 93.2439 172.502 93.3117 172.096 93.3117ZM172.562 91.9406C172.916 91.9406 173.217 91.8452 173.467 91.6543C173.716 91.4604 173.905 91.1912 174.034 90.8465C174.164 90.5018 174.228 90.1001 174.228 89.6416C174.228 89.183 174.164 88.7844 174.034 88.4459C173.908 88.1073 173.721 87.8442 173.471 87.6565C173.225 87.4687 172.922 87.3749 172.562 87.3749C172.189 87.3749 171.879 87.4718 171.629 87.6657C171.38 87.8596 171.192 88.1274 171.066 88.469C170.94 88.8106 170.877 89.2015 170.877 89.6416C170.877 90.0847 170.94 90.4802 171.066 90.828C171.195 91.1727 171.385 91.4451 171.634 91.6451C171.886 91.8421 172.196 91.9406 172.562 91.9406ZM177.653 93.187V86.0961H179.324V93.187H177.653ZM178.493 85.0897C178.228 85.0897 178 85.002 177.81 84.8266C177.619 84.6481 177.523 84.4342 177.523 84.1849C177.523 83.9325 177.619 83.7186 177.81 83.5432C178 83.3647 178.228 83.2754 178.493 83.2754C178.761 83.2754 178.988 83.3647 179.176 83.5432C179.367 83.7186 179.462 83.9325 179.462 84.1849C179.462 84.4342 179.367 84.6481 179.176 84.8266C178.988 85.002 178.761 85.0897 178.493 85.0897ZM183.083 93.3301C182.633 93.3301 182.229 93.2501 181.869 93.0901C181.512 92.927 181.228 92.6869 181.019 92.3699C180.813 92.0529 180.71 91.662 180.71 91.1973C180.71 90.7972 180.784 90.4664 180.931 90.2048C181.079 89.9432 181.281 89.7339 181.536 89.5769C181.792 89.42 182.079 89.3015 182.4 89.2215C182.723 89.1384 183.057 89.0783 183.401 89.0414C183.817 88.9983 184.154 88.9599 184.412 88.926C184.671 88.8891 184.859 88.8337 184.975 88.7598C185.096 88.6829 185.156 88.5644 185.156 88.4043V88.3766C185.156 88.0289 185.052 87.7596 184.846 87.5688C184.64 87.3779 184.343 87.2825 183.955 87.2825C183.546 87.2825 183.221 87.3718 182.981 87.5503C182.744 87.7288 182.584 87.9396 182.501 88.1828L180.941 87.9612C181.064 87.5303 181.267 87.1702 181.55 86.8809C181.833 86.5885 182.179 86.37 182.589 86.2254C182.998 86.0776 183.451 86.0038 183.946 86.0038C184.288 86.0038 184.628 86.0438 184.966 86.1238C185.305 86.2038 185.614 86.3362 185.894 86.5208C186.174 86.7024 186.399 86.9502 186.568 87.2641C186.741 87.578 186.827 87.9704 186.827 88.4413V93.187H185.22V92.2129H185.165C185.063 92.4099 184.92 92.5946 184.735 92.7669C184.554 92.9362 184.325 93.0731 184.048 93.1778C183.774 93.2793 183.452 93.3301 183.083 93.3301ZM183.517 92.1021C183.852 92.1021 184.143 92.036 184.389 91.9036C184.635 91.7682 184.825 91.5897 184.957 91.3681C185.092 91.1465 185.16 90.9049 185.16 90.6433V89.8078C185.108 89.8508 185.019 89.8908 184.892 89.9278C184.769 89.9647 184.631 89.997 184.477 90.0247C184.323 90.0524 184.171 90.077 184.02 90.0986C183.869 90.1201 183.738 90.1386 183.627 90.154C183.378 90.1878 183.155 90.2432 182.958 90.3202C182.761 90.3971 182.606 90.5048 182.492 90.6433C182.378 90.7787 182.321 90.9542 182.321 91.1696C182.321 91.4774 182.433 91.7097 182.658 91.8667C182.883 92.0237 183.169 92.1021 183.517 92.1021ZM191.6 93.3255C190.892 93.3255 190.284 93.1701 189.777 92.8592C189.272 92.5484 188.883 92.1191 188.609 91.5712C188.338 91.0203 188.202 90.3863 188.202 89.6693C188.202 88.9491 188.341 88.3136 188.618 87.7627C188.895 87.2087 189.286 86.7778 189.79 86.47C190.298 86.1592 190.898 86.0038 191.591 86.0038C192.166 86.0038 192.676 86.11 193.119 86.3223C193.565 86.5316 193.921 86.8286 194.185 87.2133C194.45 87.5949 194.601 88.0412 194.638 88.5521H193.04C192.976 88.2104 192.822 87.9258 192.579 87.698C192.339 87.4672 192.017 87.3518 191.614 87.3518C191.272 87.3518 190.972 87.4441 190.714 87.6288C190.455 87.8104 190.254 88.072 190.109 88.4136C189.967 88.7552 189.897 89.1645 189.897 89.6416C189.897 90.1247 189.967 90.5402 190.109 90.888C190.251 91.2327 190.449 91.4989 190.705 91.6867C190.963 91.8713 191.266 91.9636 191.614 91.9636C191.86 91.9636 192.08 91.9175 192.274 91.8252C192.471 91.7297 192.636 91.5928 192.768 91.4143C192.9 91.2358 192.991 91.0188 193.04 90.7634H194.638C194.598 91.265 194.45 91.7097 194.195 92.0975C193.939 92.4822 193.591 92.7838 193.151 93.0024C192.711 93.2178 192.194 93.3255 191.6 93.3255ZM191.12 93.1501H192.025L191.951 93.5425C192.24 93.5856 192.485 93.6964 192.685 93.8749C192.888 94.0564 192.99 94.3165 192.99 94.6551C192.993 95.0921 192.797 95.4429 192.403 95.7076C192.009 95.9723 191.448 96.1046 190.718 96.1046L190.7 95.2829C191.054 95.2829 191.335 95.2352 191.545 95.1398C191.754 95.0475 191.86 94.8997 191.863 94.6966C191.869 94.4996 191.796 94.355 191.642 94.2627C191.491 94.1734 191.251 94.1118 190.922 94.078L191.12 93.1501ZM198.051 93.3301C197.601 93.3301 197.196 93.2501 196.836 93.0901C196.479 92.927 196.196 92.6869 195.987 92.3699C195.781 92.0529 195.678 91.662 195.678 91.1973C195.678 90.7972 195.752 90.4664 195.899 90.2048C196.047 89.9432 196.249 89.7339 196.504 89.5769C196.759 89.42 197.047 89.3015 197.367 89.2215C197.69 89.1384 198.024 89.0783 198.369 89.0414C198.785 88.9983 199.122 88.9599 199.38 88.926C199.639 88.8891 199.826 88.8337 199.943 88.7598C200.063 88.6829 200.123 88.5644 200.123 88.4043V88.3766C200.123 88.0289 200.02 87.7596 199.814 87.5688C199.608 87.3779 199.311 87.2825 198.923 87.2825C198.514 87.2825 198.189 87.3718 197.949 87.5503C197.712 87.7288 197.552 87.9396 197.469 88.1828L195.908 87.9612C196.032 87.5303 196.235 87.1702 196.518 86.8809C196.801 86.5885 197.147 86.37 197.557 86.2254C197.966 86.0776 198.418 86.0038 198.914 86.0038C199.255 86.0038 199.595 86.0438 199.934 86.1238C200.273 86.2038 200.582 86.3362 200.862 86.5208C201.142 86.7024 201.367 86.9502 201.536 87.2641C201.708 87.578 201.794 87.9704 201.794 88.4413V93.187H200.188V92.2129H200.133C200.031 92.4099 199.888 92.5946 199.703 92.7669C199.522 92.9362 199.292 93.0731 199.015 93.1778C198.741 93.2793 198.42 93.3301 198.051 93.3301ZM198.484 92.1021C198.82 92.1021 199.111 92.036 199.357 91.9036C199.603 91.7682 199.792 91.5897 199.925 91.3681C200.06 91.1465 200.128 90.9049 200.128 90.6433V89.8078C200.076 89.8508 199.986 89.8908 199.86 89.9278C199.737 89.9647 199.599 89.997 199.445 90.0247C199.291 90.0524 199.138 90.077 198.988 90.0986C198.837 90.1201 198.706 90.1386 198.595 90.154C198.346 90.1878 198.123 90.2432 197.926 90.3202C197.729 90.3971 197.573 90.5048 197.46 90.6433C197.346 90.7787 197.289 90.9542 197.289 91.1696C197.289 91.4774 197.401 91.7097 197.626 91.8667C197.85 92.0237 198.137 92.1021 198.484 92.1021ZM197.63 85.2328L196.619 85.2097C196.619 84.6619 196.761 84.2326 197.044 83.9217C197.327 83.6109 197.677 83.4555 198.092 83.4555C198.292 83.4555 198.466 83.4893 198.614 83.557C198.761 83.6217 198.897 83.6971 199.02 83.7832C199.146 83.8694 199.269 83.9464 199.389 84.0141C199.509 84.0787 199.642 84.111 199.786 84.111C199.962 84.111 200.1 84.0448 200.202 83.9125C200.306 83.7802 200.36 83.6109 200.363 83.4047L201.356 83.4462C201.353 83.9971 201.21 84.4249 200.927 84.7296C200.643 85.0312 200.296 85.1836 199.883 85.1867C199.662 85.1897 199.475 85.1574 199.325 85.0897C199.174 85.022 199.042 84.9451 198.928 84.8589C198.817 84.7727 198.705 84.6973 198.591 84.6327C198.477 84.565 198.343 84.5311 198.189 84.5311C198.026 84.5311 197.892 84.5957 197.787 84.725C197.683 84.8543 197.63 85.0235 197.63 85.2328ZM206.568 93.3255C205.875 93.3255 205.275 93.1732 204.767 92.8685C204.26 92.5638 203.866 92.1375 203.586 91.5897C203.309 91.0419 203.17 90.4017 203.17 89.6693C203.17 88.9368 203.309 88.2951 203.586 87.7442C203.866 87.1933 204.26 86.7655 204.767 86.4608C205.275 86.1561 205.875 86.0038 206.568 86.0038C207.26 86.0038 207.861 86.1561 208.368 86.4608C208.876 86.7655 209.269 87.1933 209.546 87.7442C209.826 88.2951 209.966 88.9368 209.966 89.6693C209.966 90.4017 209.826 91.0419 209.546 91.5897C209.269 92.1375 208.876 92.5638 208.368 92.8685C207.861 93.1732 207.26 93.3255 206.568 93.3255ZM206.577 91.9867C206.953 91.9867 207.267 91.8836 207.519 91.6774C207.771 91.4681 207.959 91.1881 208.082 90.8372C208.208 90.4864 208.271 90.0955 208.271 89.6646C208.271 89.2307 208.208 88.8383 208.082 88.4874C207.959 88.1335 207.771 87.8519 207.519 87.6426C207.267 87.4333 206.953 87.3287 206.577 87.3287C206.192 87.3287 205.872 87.4333 205.617 87.6426C205.365 87.8519 205.175 88.1335 205.049 88.4874C204.926 88.8383 204.864 89.2307 204.864 89.6646C204.864 90.0955 204.926 90.4864 205.049 90.8372C205.175 91.1881 205.365 91.4681 205.617 91.6774C205.872 91.8836 206.192 91.9867 206.577 91.9867ZM217.24 93.3117C216.683 93.3117 216.184 93.1685 215.744 92.8823C215.304 92.5961 214.956 92.1806 214.701 91.6359C214.446 91.0911 214.318 90.4294 214.318 89.6508C214.318 88.8629 214.447 88.1981 214.706 87.6565C214.967 87.1117 215.32 86.7009 215.763 86.4239C216.206 86.1438 216.7 86.0038 217.245 86.0038C217.66 86.0038 218.002 86.0746 218.27 86.2161C218.537 86.3546 218.75 86.5224 218.907 86.7193C219.064 86.9132 219.185 87.0963 219.271 87.2687H219.341V83.7325H221.016V93.187H219.373V92.0698H219.271C219.185 92.2422 219.06 92.4253 218.897 92.6192C218.734 92.81 218.519 92.9731 218.251 93.1085C217.983 93.2439 217.646 93.3117 217.24 93.3117ZM217.706 91.9406C218.06 91.9406 218.362 91.8452 218.611 91.6543C218.86 91.4604 219.05 91.1912 219.179 90.8465C219.308 90.5018 219.373 90.1001 219.373 89.6416C219.373 89.183 219.308 88.7844 219.179 88.4459C219.053 88.1073 218.865 87.8442 218.616 87.6565C218.37 87.4687 218.066 87.3749 217.706 87.3749C217.334 87.3749 217.023 87.4718 216.774 87.6657C216.525 87.8596 216.337 88.1274 216.211 88.469C216.084 88.8106 216.021 89.2015 216.021 89.6416C216.021 90.0847 216.084 90.4802 216.211 90.828C216.34 91.1727 216.529 91.4451 216.778 91.6451C217.031 91.8421 217.34 91.9406 217.706 91.9406ZM225.936 93.3255C225.225 93.3255 224.611 93.1778 224.094 92.8823C223.58 92.5838 223.185 92.1622 222.908 91.6174C222.631 91.0696 222.492 90.4248 222.492 89.6831C222.492 88.9537 222.631 88.3136 222.908 87.7627C223.188 87.2087 223.579 86.7778 224.081 86.47C224.582 86.1592 225.172 86.0038 225.849 86.0038C226.286 86.0038 226.698 86.0746 227.086 86.2161C227.477 86.3546 227.821 86.5701 228.12 86.8624C228.422 87.1548 228.659 87.5272 228.831 87.9796C229.003 88.429 229.089 88.9645 229.089 89.5862V90.0986H223.277V88.9722H227.487C227.484 88.6521 227.415 88.3674 227.28 88.1181C227.144 87.8658 226.955 87.6672 226.712 87.5226C226.472 87.3779 226.192 87.3056 225.872 87.3056C225.53 87.3056 225.23 87.3887 224.972 87.5549C224.713 87.718 224.511 87.9335 224.367 88.2012C224.225 88.4659 224.153 88.7567 224.15 89.0737V90.057C224.15 90.4694 224.225 90.8234 224.376 91.1188C224.527 91.4112 224.738 91.6359 225.008 91.7928C225.279 91.9467 225.596 92.0237 225.959 92.0237C226.203 92.0237 226.423 91.9898 226.62 91.9221C226.817 91.8513 226.987 91.7482 227.132 91.6128C227.277 91.4774 227.386 91.3096 227.46 91.1096L229.02 91.285C228.922 91.6974 228.734 92.0575 228.457 92.3653C228.183 92.67 227.832 92.9069 227.404 93.0762C226.977 93.2424 226.487 93.3255 225.936 93.3255ZM238.94 86.3315C238.897 85.9284 238.715 85.6145 238.395 85.3898C238.078 85.1651 237.666 85.0528 237.158 85.0528C236.801 85.0528 236.495 85.1066 236.239 85.2144C235.984 85.3221 235.788 85.4683 235.653 85.6529C235.517 85.8376 235.448 86.0484 235.445 86.2854C235.445 86.4823 235.49 86.6532 235.579 86.7978C235.671 86.9425 235.796 87.0656 235.953 87.1671C236.11 87.2656 236.284 87.3487 236.475 87.4164C236.665 87.4841 236.858 87.5411 237.052 87.5872L237.938 87.8088C238.295 87.8919 238.638 88.0042 238.968 88.1458C239.3 88.2874 239.597 88.4659 239.858 88.6813C240.123 88.8968 240.332 89.1568 240.486 89.4615C240.64 89.7662 240.717 90.1232 240.717 90.5325C240.717 91.0865 240.576 91.5743 240.292 91.996C240.009 92.4145 239.6 92.7423 239.064 92.9793C238.532 93.2132 237.887 93.3301 237.13 93.3301C236.395 93.3301 235.756 93.2162 235.214 92.9885C234.676 92.7608 234.254 92.4284 233.949 91.9913C233.648 91.5543 233.485 91.0219 233.46 90.394H235.145C235.17 90.7234 235.271 90.9973 235.45 91.2158C235.628 91.4343 235.861 91.5974 236.147 91.7051C236.436 91.8128 236.759 91.8667 237.116 91.8667C237.489 91.8667 237.815 91.8113 238.095 91.7005C238.378 91.5866 238.6 91.4297 238.76 91.2296C238.92 91.0265 239.001 90.7895 239.004 90.5187C239.001 90.2725 238.929 90.0694 238.787 89.9093C238.646 89.7462 238.447 89.6108 238.192 89.5031C237.94 89.3923 237.644 89.2938 237.306 89.2076L236.23 88.9306C235.451 88.7306 234.836 88.4274 234.383 88.0212C233.934 87.6118 233.709 87.0686 233.709 86.3916C233.709 85.8345 233.86 85.3467 234.162 84.9281C234.466 84.5096 234.88 84.1849 235.404 83.9541C235.927 83.7202 236.519 83.6032 237.181 83.6032C237.852 83.6032 238.44 83.7202 238.944 83.9541C239.452 84.1849 239.851 84.5065 240.14 84.9189C240.429 85.3282 240.579 85.7991 240.588 86.3315H238.94ZM245.309 93.3255C244.598 93.3255 243.984 93.1778 243.467 92.8823C242.953 92.5838 242.558 92.1622 242.281 91.6174C242.004 91.0696 241.866 90.4248 241.866 89.6831C241.866 88.9537 242.004 88.3136 242.281 87.7627C242.561 87.2087 242.952 86.7778 243.454 86.47C243.955 86.1592 244.545 86.0038 245.222 86.0038C245.659 86.0038 246.071 86.0746 246.459 86.2161C246.85 86.3546 247.194 86.5701 247.493 86.8624C247.795 87.1548 248.032 87.5272 248.204 87.9796C248.376 88.429 248.462 88.9645 248.462 89.5862V90.0986H242.65V88.9722H246.861C246.857 88.6521 246.788 88.3674 246.653 88.1181C246.517 87.8658 246.328 87.6672 246.085 87.5226C245.845 87.3779 245.565 87.3056 245.245 87.3056C244.903 87.3056 244.603 87.3887 244.345 87.5549C244.086 87.718 243.884 87.9335 243.74 88.2012C243.598 88.4659 243.526 88.7567 243.523 89.0737V90.057C243.523 90.4694 243.598 90.8234 243.749 91.1188C243.9 91.4112 244.111 91.6359 244.381 91.7928C244.652 91.9467 244.969 92.0237 245.332 92.0237C245.576 92.0237 245.796 91.9898 245.993 91.9221C246.19 91.8513 246.36 91.7482 246.505 91.6128C246.65 91.4774 246.759 91.3096 246.833 91.1096L248.393 91.285C248.295 91.6974 248.107 92.0575 247.83 92.3653C247.556 92.67 247.205 92.9069 246.777 93.0762C246.35 93.2424 245.86 93.3255 245.309 93.3255ZM252.96 95.9938C252.36 95.9938 251.844 95.9123 251.414 95.7492C250.983 95.5891 250.636 95.3737 250.375 95.1028C250.113 94.832 249.932 94.5319 249.83 94.2026L251.335 93.8379C251.403 93.9764 251.501 94.1134 251.631 94.2488C251.76 94.3873 251.934 94.5012 252.152 94.5904C252.374 94.6828 252.652 94.7289 252.988 94.7289C253.462 94.7289 253.854 94.6135 254.165 94.3827C254.476 94.1549 254.631 93.7795 254.631 93.2563V91.9129H254.548C254.462 92.0852 254.336 92.2622 254.17 92.4438C254.006 92.6253 253.789 92.7777 253.519 92.9008C253.251 93.0239 252.914 93.0854 252.508 93.0854C251.963 93.0854 251.469 92.9577 251.026 92.7023C250.586 92.4438 250.235 92.0591 249.973 91.5482C249.715 91.0342 249.585 90.391 249.585 89.6185C249.585 88.8398 249.715 88.1828 249.973 87.6472C250.235 87.1086 250.587 86.7009 251.03 86.4239C251.474 86.1438 251.968 86.0038 252.512 86.0038C252.928 86.0038 253.269 86.0746 253.537 86.2161C253.808 86.3546 254.023 86.5224 254.183 86.7193C254.343 86.9132 254.465 87.0963 254.548 87.2687H254.64V86.0961H256.289V93.3024C256.289 93.9087 256.144 94.4104 255.855 94.8074C255.565 95.2044 255.17 95.5014 254.668 95.6984C254.166 95.8953 253.597 95.9938 252.96 95.9938ZM252.974 91.7744C253.328 91.7744 253.629 91.6882 253.879 91.5158C254.128 91.3435 254.317 91.0957 254.447 90.7726C254.576 90.4494 254.64 90.0617 254.64 89.6092C254.64 89.163 254.576 88.7721 254.447 88.4367C254.32 88.1012 254.133 87.8411 253.883 87.6565C253.637 87.4687 253.334 87.3749 252.974 87.3749C252.602 87.3749 252.291 87.4718 252.041 87.6657C251.792 87.8596 251.604 88.1258 251.478 88.4644C251.352 88.7998 251.289 89.1814 251.289 89.6092C251.289 90.0432 251.352 90.4233 251.478 90.7495C251.607 91.0727 251.797 91.325 252.046 91.5066C252.298 91.6851 252.608 91.7744 252.974 91.7744ZM262.521 90.2048V86.0961H264.192V93.187H262.572V91.9267H262.498C262.338 92.3237 262.075 92.6484 261.708 92.9008C261.345 93.1532 260.897 93.2793 260.365 93.2793C259.9 93.2793 259.489 93.1762 259.132 92.97C258.778 92.7608 258.501 92.4576 258.301 92.0606C258.101 91.6605 258.001 91.1773 258.001 90.611V86.0961H259.672V90.3525C259.672 90.8018 259.796 91.1588 260.042 91.4235C260.288 91.6882 260.611 91.8205 261.011 91.8205C261.257 91.8205 261.496 91.7605 261.727 91.6405C261.958 91.5205 262.147 91.342 262.295 91.105C262.445 90.8649 262.521 90.5649 262.521 90.2048ZM265.91 93.187V86.0961H267.531V87.2779H267.605C267.734 86.8686 267.956 86.5531 268.269 86.3315C268.586 86.1069 268.948 85.9945 269.354 85.9945C269.447 85.9945 269.55 85.9992 269.664 86.0084C269.781 86.0145 269.878 86.0253 269.954 86.0407V87.578C269.884 87.5534 269.771 87.5318 269.617 87.5134C269.467 87.4918 269.32 87.481 269.179 87.481C268.874 87.481 268.6 87.5472 268.357 87.6796C268.117 87.8088 267.928 87.9889 267.789 88.2197C267.651 88.4505 267.582 88.7167 267.582 89.0183V93.187H265.91ZM273.866 93.3255C273.173 93.3255 272.573 93.1732 272.065 92.8685C271.558 92.5638 271.164 92.1375 270.884 91.5897C270.607 91.0419 270.468 90.4017 270.468 89.6693C270.468 88.9368 270.607 88.2951 270.884 87.7442C271.164 87.1933 271.558 86.7655 272.065 86.4608C272.573 86.1561 273.173 86.0038 273.866 86.0038C274.558 86.0038 275.158 86.1561 275.666 86.4608C276.174 86.7655 276.566 87.1933 276.843 87.7442C277.123 88.2951 277.263 88.9368 277.263 89.6693C277.263 90.4017 277.123 91.0419 276.843 91.5897C276.566 92.1375 276.174 92.5638 275.666 92.8685C275.158 93.1732 274.558 93.3255 273.866 93.3255ZM273.875 91.9867C274.25 91.9867 274.564 91.8836 274.817 91.6774C275.069 91.4681 275.257 91.1881 275.38 90.8372C275.506 90.4864 275.569 90.0955 275.569 89.6646C275.569 89.2307 275.506 88.8383 275.38 88.4874C275.257 88.1335 275.069 87.8519 274.817 87.6426C274.564 87.4333 274.25 87.3287 273.875 87.3287C273.49 87.3287 273.17 87.4333 272.915 87.6426C272.662 87.8519 272.473 88.1335 272.347 88.4874C272.224 88.8383 272.162 89.2307 272.162 89.6646C272.162 90.0955 272.224 90.4864 272.347 90.8372C272.473 91.1881 272.662 91.4681 272.915 91.6774C273.17 91.8836 273.49 91.9867 273.875 91.9867ZM284.286 87.9704L282.763 88.1366C282.72 87.9827 282.644 87.8381 282.537 87.7026C282.432 87.5672 282.29 87.458 282.112 87.3749C281.933 87.2918 281.715 87.2502 281.456 87.2502C281.109 87.2502 280.816 87.3256 280.579 87.4764C280.345 87.6272 280.23 87.8227 280.233 88.0627C280.23 88.2689 280.305 88.4367 280.459 88.5659C280.616 88.6952 280.875 88.8014 281.235 88.8845L282.444 89.143C283.115 89.2876 283.614 89.5169 283.94 89.8308C284.269 90.1448 284.436 90.5556 284.439 91.0634C284.436 91.5097 284.305 91.9036 284.046 92.2453C283.791 92.5838 283.435 92.8485 282.98 93.0393C282.524 93.2301 282.001 93.3255 281.41 93.3255C280.542 93.3255 279.844 93.1439 279.314 92.7808C278.785 92.4145 278.47 91.9052 278.368 91.2527L279.998 91.0957C280.071 91.4158 280.228 91.6574 280.468 91.8205C280.709 91.9836 281.021 92.0652 281.406 92.0652C281.803 92.0652 282.121 91.9836 282.361 91.8205C282.604 91.6574 282.726 91.4558 282.726 91.2158C282.726 91.0127 282.647 90.8449 282.491 90.7126C282.337 90.5802 282.097 90.4787 281.77 90.4079L280.561 90.154C279.881 90.0124 279.377 89.7739 279.051 89.4384C278.725 89.0999 278.563 88.6721 278.566 88.1551C278.563 87.718 278.682 87.3395 278.922 87.0194C279.165 86.6962 279.502 86.447 279.933 86.2715C280.367 86.093 280.867 86.0038 281.433 86.0038C282.264 86.0038 282.918 86.1807 283.395 86.5347C283.875 86.8886 284.172 87.3672 284.286 87.9704ZM287.779 91.8944L287.719 92.4022C287.676 92.79 287.599 93.1839 287.488 93.584C287.38 93.9872 287.266 94.3581 287.146 94.6966C287.026 95.0351 286.929 95.3014 286.855 95.4953H285.729C285.772 95.3075 285.831 95.0521 285.904 94.7289C285.981 94.4058 286.055 94.0426 286.126 93.6394C286.197 93.2363 286.244 92.8269 286.269 92.4114L286.301 91.8944H287.779ZM292.657 93.187V83.7325H294.37V91.7513H298.534V93.187H292.657ZM302.578 93.3117C302.021 93.3117 301.522 93.1685 301.082 92.8823C300.642 92.5961 300.294 92.1806 300.039 91.6359C299.783 91.0911 299.656 90.4294 299.656 89.6508C299.656 88.8629 299.785 88.1981 300.044 87.6565C300.305 87.1117 300.657 86.7009 301.101 86.4239C301.544 86.1438 302.038 86.0038 302.583 86.0038C302.998 86.0038 303.34 86.0746 303.607 86.2161C303.875 86.3546 304.088 86.5224 304.244 86.7193C304.401 86.9132 304.523 87.0963 304.609 87.2687H304.678V83.7325H306.354V93.187H304.711V92.0698H304.609C304.523 92.2422 304.398 92.4253 304.235 92.6192C304.072 92.81 303.857 92.9731 303.589 93.1085C303.321 93.2439 302.984 93.3117 302.578 93.3117ZM303.044 91.9406C303.398 91.9406 303.7 91.8452 303.949 91.6543C304.198 91.4604 304.388 91.1912 304.517 90.8465C304.646 90.5018 304.711 90.1001 304.711 89.6416C304.711 89.183 304.646 88.7844 304.517 88.4459C304.391 88.1073 304.203 87.8442 303.954 87.6565C303.707 87.4687 303.404 87.3749 303.044 87.3749C302.672 87.3749 302.361 87.4718 302.112 87.6657C301.862 87.8596 301.675 88.1274 301.548 88.469C301.422 88.8106 301.359 89.2015 301.359 89.6416C301.359 90.0847 301.422 90.4802 301.548 90.828C301.678 91.1727 301.867 91.4451 302.116 91.6451C302.369 91.8421 302.678 91.9406 303.044 91.9406ZM310.176 93.3301C309.726 93.3301 309.321 93.2501 308.961 93.0901C308.604 92.927 308.321 92.6869 308.112 92.3699C307.906 92.0529 307.803 91.662 307.803 91.1973C307.803 90.7972 307.877 90.4664 308.024 90.2048C308.172 89.9432 308.374 89.7339 308.629 89.5769C308.884 89.42 309.172 89.3015 309.492 89.2215C309.815 89.1384 310.149 89.0783 310.494 89.0414C310.91 88.9983 311.247 88.9599 311.505 88.926C311.764 88.8891 311.951 88.8337 312.068 88.7598C312.188 88.6829 312.248 88.5644 312.248 88.4043V88.3766C312.248 88.0289 312.145 87.7596 311.939 87.5688C311.733 87.3779 311.436 87.2825 311.048 87.2825C310.639 87.2825 310.314 87.3718 310.074 87.5503C309.837 87.7288 309.677 87.9396 309.594 88.1828L308.033 87.9612C308.157 87.5303 308.36 87.1702 308.643 86.8809C308.926 86.5885 309.272 86.37 309.682 86.2254C310.091 86.0776 310.543 86.0038 311.039 86.0038C311.38 86.0038 311.72 86.0438 312.059 86.1238C312.398 86.2038 312.707 86.3362 312.987 86.5208C313.267 86.7024 313.492 86.9502 313.661 87.2641C313.833 87.578 313.919 87.9704 313.919 88.4413V93.187H312.313V92.2129H312.258C312.156 92.4099 312.013 92.5946 311.828 92.7669C311.647 92.9362 311.417 93.0731 311.14 93.1778C310.866 93.2793 310.545 93.3301 310.176 93.3301ZM310.609 92.1021C310.945 92.1021 311.236 92.036 311.482 91.9036C311.728 91.7682 311.917 91.5897 312.05 91.3681C312.185 91.1465 312.253 90.9049 312.253 90.6433V89.8078C312.201 89.8508 312.111 89.8908 311.985 89.9278C311.862 89.9647 311.724 89.997 311.57 90.0247C311.416 90.0524 311.263 90.077 311.113 90.0986C310.962 90.1201 310.831 90.1386 310.72 90.154C310.471 90.1878 310.248 90.2432 310.051 90.3202C309.854 90.3971 309.698 90.5048 309.585 90.6433C309.471 90.7787 309.414 90.9542 309.414 91.1696C309.414 91.4774 309.526 91.7097 309.751 91.8667C309.975 92.0237 310.262 92.1021 310.609 92.1021ZM316.629 93.2886C316.349 93.2886 316.109 93.1901 315.909 92.9931C315.709 92.7961 315.611 92.5561 315.614 92.2729C315.611 91.996 315.709 91.759 315.909 91.562C316.109 91.365 316.349 91.2666 316.629 91.2666C316.9 91.2666 317.136 91.365 317.336 91.562C317.539 91.759 317.642 91.996 317.645 92.2729C317.642 92.4607 317.593 92.6315 317.497 92.7854C317.405 92.9393 317.282 93.0624 317.128 93.1547C316.977 93.2439 316.811 93.2886 316.629 93.2886Z" fill="black"/>
</g>
<defs>
<clipPath id="clip0_690_6501">
<rect width="331.528" height="96.187" fill="white"/>
</clipPath>
</defs>
</svg>
