<svg width="407" height="103" viewBox="0 0 407 103" fill="none" xmlns="http://www.w3.org/2000/svg">
<path d="M87.1504 51.15C87.1504 63.51 81.9204 74.66 73.5504 82.48C72.8804 77.07 70.3504 73.21 66.8804 70.45C66.1304 69.85 65.3204 69.29 64.4804 68.79C62.9304 67.86 61.2604 67.1 59.5404 66.46C58.1504 65.95 56.7204 65.53 55.3004 65.18L45.0304 62.52L42.2104 61.79C38.8104 60.95 35.9704 59.55 34.3804 57.31C34.3604 57.28 34.3504 57.25 34.3204 57.22C33.4904 56.02 33.0404 54.58 33.0404 52.86C33.0404 49.05 35.2604 46.1 39.0004 44.52L31.8504 42.67C28.3604 41.81 25.2404 40.65 22.5204 39.2C19.3804 43.14 17.6704 48.05 17.6704 53.51C17.6704 66.27 27.0404 72.38 36.7504 74.78L49.6304 78.17C54.8704 79.59 58.5804 81.88 58.5804 86.47C58.5804 89.15 57.1904 91.39 54.6804 92.78C54.6804 92.78 54.6804 92.78 54.6604 92.78C51.3404 93.61 47.8604 94.05 44.2804 94.05C20.6004 94.03 1.40039 74.83 1.40039 51.15C1.40039 38.79 6.63039 27.65 15.0004 19.82C15.6704 25.22 18.2004 29.08 21.6704 31.85C22.4204 32.45 23.2304 33.01 24.0604 33.51C25.6104 34.44 27.2904 35.21 29.0204 35.84C30.4004 36.35 31.8304 36.78 33.2604 37.12L43.5304 39.77L46.3504 40.5C49.7404 41.35 52.5804 42.75 54.1704 44.99C54.1904 45.01 54.2004 45.05 54.2304 45.07C55.0604 46.27 55.5104 47.72 55.5104 49.44C55.5104 53.24 53.2904 56.21 49.5504 57.78L56.7004 59.63C60.1904 60.49 63.3104 61.64 66.0304 63.1C69.1704 59.16 70.8904 54.26 70.8904 48.78C70.8904 36.02 61.5204 29.92 51.8004 27.52L38.9204 24.13C33.6904 22.71 29.9704 20.42 29.9704 15.84C29.9704 13.14 31.3704 10.91 33.8704 9.53C37.2004 8.7 40.6904 8.25 44.2804 8.25C67.9504 8.25 87.1504 27.45 87.1504 51.13" fill="#274FA0"/>
<path d="M95.6098 63.0001L107.77 61.5001C108.65 67.5901 112.98 71.8101 121.08 71.8101C127.34 71.8101 131.48 68.7301 131.48 64.0501C131.48 59.9901 128.3 57.8801 124.07 56.8301L113.49 54.0901C105.91 52.2401 98.5898 47.9201 98.5898 37.7001C98.5898 26.5901 108.03 19.3701 120.02 19.3701C129.27 19.3701 140.03 23.7801 142.05 36.5501L130.15 38.1401C129.18 33.2901 124.86 30.5601 119.48 30.5601C114.1 30.5601 110.84 33.2001 110.84 36.9001C110.84 40.6001 113.83 42.4501 118.06 43.6001L128.46 46.3401C136.31 48.2801 143.88 53.2201 143.88 63.5201C143.88 74.7101 134.98 83.0001 121.05 83.0001C107.12 83.0001 96.9998 75.6901 95.5898 63.0001" fill="#274FA0"/>
<path d="M175.54 20.3398H166.11L141.61 82.0298H153.77L158.17 70.8398H183.38L187.7 82.0298H200.22L175.54 20.3398ZM162.25 60.4398L166.49 49.6898C169.23 42.4598 170.89 36.1998 170.89 36.1998C170.89 36.1998 172.47 42.4598 175.21 49.6898L179.35 60.4398H162.25Z" fill="#274FA0"/>
<path d="M236.89 49.4301C241.66 47.7601 245.62 42.0301 245.62 36.0301C245.62 26.8701 237.34 20.3501 226.85 20.3501H202.97V82.0301H228.35C238.75 82.0301 247.39 74.8101 247.39 63.9601C247.39 57.1801 242.8 50.9201 236.9 49.4201M214.51 31.0001H226.24C230.64 31.0001 233.99 34.1801 233.99 38.1401C233.99 42.6401 230.03 45.1901 225.62 45.1901H214.51V31.0001ZM227.29 71.2001H214.51V55.2401H227.47C231.97 55.2401 235.67 58.3301 235.67 63.2601C235.67 67.7601 232.05 71.1901 227.29 71.1901" fill="#274FA0"/>
<path d="M249.24 63.0001L261.4 61.5001C262.28 67.5901 266.61 71.8101 274.71 71.8101C280.97 71.8101 285.11 68.7301 285.11 64.0501C285.11 59.9901 281.93 57.8801 277.7 56.8301L267.12 54.0901C259.54 52.2401 252.22 47.9201 252.22 37.7001C252.22 26.5901 261.65 19.3701 273.64 19.3701C282.89 19.3701 293.65 23.7801 295.67 36.5501L283.77 38.1401C282.8 33.2901 278.48 30.5601 273.1 30.5601C267.72 30.5601 264.46 33.2001 264.46 36.9001C264.46 40.6001 267.45 42.4501 271.68 43.6001L282.08 46.3401C289.93 48.2801 297.5 53.2201 297.5 63.5201C297.5 74.7101 288.6 83.0001 274.67 83.0001C260.74 83.0001 250.61 75.6801 249.2 62.9901H249.22L249.24 63.0001Z" fill="#274FA0"/>
<path d="M303.09 20.3398H340.72V31.3598H314.63V44.3998H337.99V55.5098H314.63V71.0198H340.72V82.0398H303.09V20.3398Z" fill="#274FA0"/>
<path d="M342.93 51.1C342.93 33.12 356.6 19.46 375.01 19.46C388.15 19.46 398.99 26.24 402.34 35.15L391.32 40.09C388.85 34.36 382.15 30.66 374.75 30.66C363.12 30.66 354.83 39.21 354.83 51.11C354.83 63.01 363.56 71.74 375.37 71.74C385.5 71.74 393.35 65.21 394.06 55.88C392.21 57.11 388.07 57.2 385.51 57.2H374.76V47.59H404.55C404.64 48.12 404.9 50.41 404.9 53.32C404.9 70.77 393 82.93 374.67 82.93C356.34 82.93 342.94 69.18 342.94 51.11H342.93V51.1Z" fill="#274FA0"/>
</svg>
